<svg preserveAspectRatio="none" width="100%" height="100%" overflow="visible" style="display: block;" viewBox="0 0 458 346" fill="none" xmlns="http://www.w3.org/2000/svg">
<g id="built_for_modern_infrastructure (1) 1" clip-path="url(#clip0_0_15)">
<path id="Vector" opacity="0.18" d="M227.5 525C341.547 525 434 385.537 434 213.5C434 41.4633 341.547 -98 227.5 -98C113.453 -98 21 41.4633 21 213.5C21 385.537 113.453 525 227.5 525Z" fill="var(--fill-0, #A6D2F3)"/>
<path id="Vector_2" d="M142.788 108.125H92.9471C89.9712 108.125 87.5588 111.998 87.5588 116.775V250.85C87.5588 255.627 89.9712 259.5 92.9471 259.5H142.788C145.764 259.5 148.176 255.627 148.176 250.85V116.775C148.176 111.998 145.764 108.125 142.788 108.125Z" fill="var(--fill-0, #2F80ED)"/>
<path id="Vector_3" d="M140.768 121.1H94.9676C93.8517 121.1 92.9471 122.552 92.9471 124.344V135.156C92.9471 136.948 93.8517 138.4 94.9676 138.4H140.768C141.884 138.4 142.788 136.948 142.788 135.156V124.344C142.788 122.552 141.884 121.1 140.768 121.1Z" fill="var(--fill-0, #1A5FB5)"/>
<path id="Vector_4" d="M140.768 144.887H94.9676C93.8517 144.887 92.9471 146.34 92.9471 148.131V158.944C92.9471 160.735 93.8517 162.187 94.9676 162.187H140.768C141.884 162.187 142.788 160.735 142.788 158.944V148.131C142.788 146.34 141.884 144.887 140.768 144.887Z" fill="var(--fill-0, #1A5FB5)"/>
<path id="Vector_5" d="M140.768 168.675H94.9676C93.8517 168.675 92.9471 170.127 92.9471 171.919V182.731C92.9471 184.523 93.8517 185.975 94.9676 185.975H140.768C141.884 185.975 142.788 184.523 142.788 182.731V171.919C142.788 170.127 141.884 168.675 140.768 168.675Z" fill="var(--fill-0, #1A5FB5)"/>
<path id="Vector_6" d="M140.768 192.462H94.9676C93.8517 192.462 92.9471 193.915 92.9471 195.706V206.519C92.9471 208.31 93.8517 209.762 94.9676 209.762H140.768C141.884 209.762 142.788 208.31 142.788 206.519V195.706C142.788 193.915 141.884 192.462 140.768 192.462Z" fill="var(--fill-0, #1A5FB5)"/>
<path id="Vector_7" d="M140.768 216.25H94.9676C93.8517 216.25 92.9471 217.702 92.9471 219.494V230.306C92.9471 232.098 93.8517 233.55 94.9676 233.55H140.768C141.884 233.55 142.788 232.098 142.788 230.306V219.494C142.788 217.702 141.884 216.25 140.768 216.25Z" fill="var(--fill-0, #1A5FB5)"/>
<path id="Vector_8" d="M101.029 134.075C102.517 134.075 103.724 132.139 103.724 129.75C103.724 127.361 102.517 125.425 101.029 125.425C99.5415 125.425 98.3353 127.361 98.3353 129.75C98.3353 132.139 99.5415 134.075 101.029 134.075Z" fill="var(--fill-0, #A6D2F3)"/>
<path id="Vector_9" opacity="0.6" d="M101.029 157.863C102.517 157.863 103.724 155.926 103.724 153.538C103.724 151.149 102.517 149.213 101.029 149.213C99.5415 149.213 98.3353 151.149 98.3353 153.538C98.3353 155.926 99.5415 157.863 101.029 157.863Z" fill="var(--fill-0, white)"/>
<path id="Vector_10" d="M101.029 181.65C102.517 181.65 103.724 179.714 103.724 177.325C103.724 174.936 102.517 173 101.029 173C99.5415 173 98.3353 174.936 98.3353 177.325C98.3353 179.714 99.5415 181.65 101.029 181.65Z" fill="var(--fill-0, #A6D2F3)"/>
<path id="Vector_11" opacity="0.6" d="M101.029 205.438C102.517 205.438 103.724 203.501 103.724 201.113C103.724 198.724 102.517 196.788 101.029 196.788C99.5415 196.788 98.3353 198.724 98.3353 201.113C98.3353 203.501 99.5415 205.438 101.029 205.438Z" fill="var(--fill-0, white)"/>
<path id="Vector_12" d="M101.029 229.225C102.517 229.225 103.724 227.289 103.724 224.9C103.724 222.511 102.517 220.575 101.029 220.575C99.5415 220.575 98.3353 222.511 98.3353 224.9C98.3353 227.289 99.5415 229.225 101.029 229.225Z" fill="var(--fill-0, #A6D2F3)"/>
<path id="Vector_13" d="M365.053 108.125H315.212C312.236 108.125 309.824 111.998 309.824 116.775V250.85C309.824 255.627 312.236 259.5 315.212 259.5H365.053C368.029 259.5 370.441 255.627 370.441 250.85V116.775C370.441 111.998 368.029 108.125 365.053 108.125Z" fill="var(--fill-0, #2F80ED)"/>
<path id="Vector_14" d="M363.032 121.1H317.232C316.116 121.1 315.212 122.552 315.212 124.344V135.156C315.212 136.948 316.116 138.4 317.232 138.4H363.032C364.148 138.4 365.053 136.948 365.053 135.156V124.344C365.053 122.552 364.148 121.1 363.032 121.1Z" fill="var(--fill-0, #1A5FB5)"/>
<path id="Vector_15" d="M363.032 144.887H317.232C316.116 144.887 315.212 146.34 315.212 148.131V158.944C315.212 160.735 316.116 162.187 317.232 162.187H363.032C364.148 162.187 365.053 160.735 365.053 158.944V148.131C365.053 146.34 364.148 144.887 363.032 144.887Z" fill="var(--fill-0, #1A5FB5)"/>
<path id="Vector_16" d="M363.032 168.675H317.232C316.116 168.675 315.212 170.127 315.212 171.919V182.731C315.212 184.523 316.116 185.975 317.232 185.975H363.032C364.148 185.975 365.053 184.523 365.053 182.731V171.919C365.053 170.127 364.148 168.675 363.032 168.675Z" fill="var(--fill-0, #1A5FB5)"/>
<path id="Vector_17" d="M363.032 192.462H317.232C316.116 192.462 315.212 193.915 315.212 195.706V206.519C315.212 208.31 316.116 209.762 317.232 209.762H363.032C364.148 209.762 365.053 208.31 365.053 206.519V195.706C365.053 193.915 364.148 192.462 363.032 192.462Z" fill="var(--fill-0, #1A5FB5)"/>
<path id="Vector_18" d="M363.032 216.25H317.232C316.116 216.25 315.212 217.702 315.212 219.494V230.306C315.212 232.098 316.116 233.55 317.232 233.55H363.032C364.148 233.55 365.053 232.098 365.053 230.306V219.494C365.053 217.702 364.148 216.25 363.032 216.25Z" fill="var(--fill-0, #1A5FB5)"/>
<path id="Vector_19" opacity="0.6" d="M323.294 134.075C324.782 134.075 325.988 132.139 325.988 129.75C325.988 127.361 324.782 125.425 323.294 125.425C321.806 125.425 320.6 127.361 320.6 129.75C320.6 132.139 321.806 134.075 323.294 134.075Z" fill="var(--fill-0, white)"/>
<path id="Vector_20" d="M323.294 157.863C324.782 157.863 325.988 155.926 325.988 153.538C325.988 151.149 324.782 149.213 323.294 149.213C321.806 149.213 320.6 151.149 320.6 153.538C320.6 155.926 321.806 157.863 323.294 157.863Z" fill="var(--fill-0, #A6D2F3)"/>
<path id="Vector_21" opacity="0.6" d="M323.294 181.65C324.782 181.65 325.988 179.714 325.988 177.325C325.988 174.936 324.782 173 323.294 173C321.806 173 320.6 174.936 320.6 177.325C320.6 179.714 321.806 181.65 323.294 181.65Z" fill="var(--fill-0, white)"/>
<path id="Vector_22" d="M323.294 205.438C324.782 205.438 325.988 203.501 325.988 201.113C325.988 198.724 324.782 196.788 323.294 196.788C321.806 196.788 320.6 198.724 320.6 201.113C320.6 203.501 321.806 205.438 323.294 205.438Z" fill="var(--fill-0, #A6D2F3)"/>
<path id="Vector_23" opacity="0.6" d="M323.294 229.225C324.782 229.225 325.988 227.289 325.988 224.9C325.988 222.511 324.782 220.575 323.294 220.575C321.806 220.575 320.6 222.511 320.6 224.9C320.6 227.289 321.806 229.225 323.294 229.225Z" fill="var(--fill-0, white)"/>
<path id="Vector_24" d="M257.962 124.344H200.038C195.574 124.344 191.956 130.153 191.956 137.319V230.306C191.956 237.472 195.574 243.281 200.038 243.281H257.962C262.426 243.281 266.044 237.472 266.044 230.306V137.319C266.044 130.153 262.426 124.344 257.962 124.344Z" fill="var(--fill-0, #2F80ED)"/>
<path id="Vector_25" d="M251.9 138.4H206.1C203.124 138.4 200.712 142.273 200.712 147.05V220.575C200.712 225.352 203.124 229.225 206.1 229.225H251.9C254.876 229.225 257.288 225.352 257.288 220.575V147.05C257.288 142.273 254.876 138.4 251.9 138.4Z" fill="var(--fill-0, #1A5FB5)"/>
<path id="Vector_26" d="M212.835 160.025H245.165" stroke="var(--stroke-0, #A6D2F3)" stroke-width="1.5"/>
<path id="Vector_27" d="M212.835 175.162H245.165" stroke="var(--stroke-0, #A6D2F3)" stroke-width="1.5"/>
<path id="Vector_28" d="M212.835 190.3H245.165" stroke="var(--stroke-0, #A6D2F3)" stroke-width="1.5"/>
<path id="Vector_29" d="M212.835 205.438H245.165" stroke="var(--stroke-0, #A6D2F3)" stroke-width="1.5"/>
<path id="Vector_30" d="M212.835 163.269C213.951 163.269 214.856 161.816 214.856 160.025C214.856 158.234 213.951 156.781 212.835 156.781C211.719 156.781 210.815 158.234 210.815 160.025C210.815 161.816 211.719 163.269 212.835 163.269Z" fill="var(--fill-0, white)"/>
<path id="Vector_31" d="M245.165 178.406C246.281 178.406 247.185 176.954 247.185 175.162C247.185 173.371 246.281 171.919 245.165 171.919C244.049 171.919 243.144 173.371 243.144 175.162C243.144 176.954 244.049 178.406 245.165 178.406Z" fill="var(--fill-0, white)"/>
<path id="Vector_32" d="M212.835 193.544C213.951 193.544 214.856 192.091 214.856 190.3C214.856 188.509 213.951 187.056 212.835 187.056C211.719 187.056 210.815 188.509 210.815 190.3C210.815 192.091 211.719 193.544 212.835 193.544Z" fill="var(--fill-0, white)"/>
<path id="Vector_33" d="M245.165 208.681C246.281 208.681 247.185 207.229 247.185 205.438C247.185 203.646 246.281 202.194 245.165 202.194C244.049 202.194 243.144 203.646 243.144 205.438C243.144 207.229 244.049 208.681 245.165 208.681Z" fill="var(--fill-0, white)"/>
<path id="Vector_34" d="M229 205.438C236.44 205.438 242.471 195.756 242.471 183.812C242.471 171.869 236.44 162.188 229 162.188C221.56 162.188 215.529 171.869 215.529 183.812C215.529 195.756 221.56 205.438 229 205.438Z" stroke="var(--stroke-0, #A6D2F3)" stroke-width="1.5" stroke-dasharray="4 3"/>
<path id="Vector_35" d="M229 192.462C231.976 192.462 234.388 188.59 234.388 183.812C234.388 179.035 231.976 175.162 229 175.162C226.024 175.162 223.612 179.035 223.612 183.812C223.612 188.59 226.024 192.462 229 192.462Z" fill="var(--fill-0, #2F80ED)"/>
<path id="Vector_36" d="M229 188.138C230.488 188.138 231.694 186.201 231.694 183.813C231.694 181.424 230.488 179.488 229 179.488C227.512 179.488 226.306 181.424 226.306 183.813C226.306 186.201 227.512 188.138 229 188.138Z" fill="var(--fill-0, white)"/>
<path id="Vector_37" d="M148.176 183.812H191.956" stroke="var(--stroke-0, #A6D2F3)" stroke-width="2" stroke-dasharray="6 4"/>
<path id="Vector_38" d="M266.044 183.812H309.824" stroke="var(--stroke-0, #A6D2F3)" stroke-width="2" stroke-dasharray="6 4"/>
<path id="Vector_39" opacity="0.7" d="M165.015 101.637C170.222 101.637 174.444 94.8602 174.444 86.5C174.444 78.1398 170.222 71.3625 165.015 71.3625C159.807 71.3625 155.585 78.1398 155.585 86.5C155.585 94.8602 159.807 101.637 165.015 101.637Z" fill="var(--fill-0, #A6D2F3)"/>
<path id="Vector_40" d="M165.015 92.9875C167.247 92.9875 169.056 90.083 169.056 86.5C169.056 82.9171 167.247 80.0125 165.015 80.0125C162.783 80.0125 160.974 82.9171 160.974 86.5C160.974 90.083 162.783 92.9875 165.015 92.9875Z" fill="var(--fill-0, #2F80ED)"/>
<path id="Vector_41" d="M165.015 101.637V140.562" stroke="var(--stroke-0, #A6D2F3)" stroke-width="1.5" stroke-dasharray="3 3"/>
<path id="Vector_42" opacity="0.7" d="M292.985 99.475C298.193 99.475 302.415 92.6977 302.415 84.3375C302.415 75.9773 298.193 69.2 292.985 69.2C287.778 69.2 283.556 75.9773 283.556 84.3375C283.556 92.6977 287.778 99.475 292.985 99.475Z" fill="var(--fill-0, #A6D2F3)"/>
<path id="Vector_43" d="M292.985 90.825C295.217 90.825 297.026 87.9204 297.026 84.3375C297.026 80.7546 295.217 77.85 292.985 77.85C290.753 77.85 288.944 80.7546 288.944 84.3375C288.944 87.9204 290.753 90.825 292.985 90.825Z" fill="var(--fill-0, #2F80ED)"/>
<path id="Vector_44" d="M292.985 99.475V140.562" stroke="var(--stroke-0, #A6D2F3)" stroke-width="1.5" stroke-dasharray="3 3"/>
<path id="Vector_45" opacity="0.3" d="M368.421 268.15H89.5794C88.4635 268.15 87.5588 269.602 87.5588 271.394C87.5588 273.185 88.4635 274.637 89.5794 274.637H368.421C369.537 274.637 370.441 273.185 370.441 271.394C370.441 269.602 369.537 268.15 368.421 268.15Z" fill="var(--fill-0, #A6D2F3)"/>
</g>
<defs>
<clipPath id="clip0_0_15">
<rect width="458" height="346" fill="white"/>
</clipPath>
</defs>
</svg>
