<svg width="536" height="346" viewBox="0 0 536 346" fill="none" xmlns="http://www.w3.org/2000/svg">
<g clip-path="url(#clip0_173_1046)">
<path opacity="0.18" d="M266.5 525C380.547 525 473 385.537 473 213.5C473 41.4633 380.547 -98 266.5 -98C152.453 -98 60 41.4633 60 213.5C60 385.537 152.453 525 266.5 525Z" fill="#A6D2F3"/>
<path d="M181.788 108.125H131.947C128.971 108.125 126.559 111.998 126.559 116.775V250.85C126.559 255.627 128.971 259.5 131.947 259.5H181.788C184.764 259.5 187.176 255.627 187.176 250.85V116.775C187.176 111.998 184.764 108.125 181.788 108.125Z" fill="#2F80ED"/>
<path d="M179.768 121.1H133.968C132.852 121.1 131.947 122.552 131.947 124.344V135.156C131.947 136.948 132.852 138.4 133.968 138.4H179.768C180.884 138.4 181.788 136.948 181.788 135.156V124.344C181.788 122.552 180.884 121.1 179.768 121.1Z" fill="#1A5FB5"/>
<path d="M179.768 144.888H133.968C132.852 144.888 131.947 146.34 131.947 148.131V158.944C131.947 160.735 132.852 162.188 133.968 162.188H179.768C180.884 162.188 181.788 160.735 181.788 158.944V148.131C181.788 146.34 180.884 144.888 179.768 144.888Z" fill="#1A5FB5"/>
<path d="M179.768 168.675H133.968C132.852 168.675 131.947 170.127 131.947 171.919V182.731C131.947 184.523 132.852 185.975 133.968 185.975H179.768C180.884 185.975 181.788 184.523 181.788 182.731V171.919C181.788 170.127 180.884 168.675 179.768 168.675Z" fill="#1A5FB5"/>
<path d="M179.768 192.462H133.968C132.852 192.462 131.947 193.915 131.947 195.706V206.519C131.947 208.31 132.852 209.762 133.968 209.762H179.768C180.884 209.762 181.788 208.31 181.788 206.519V195.706C181.788 193.915 180.884 192.462 179.768 192.462Z" fill="#1A5FB5"/>
<path d="M179.768 216.25H133.968C132.852 216.25 131.947 217.702 131.947 219.494V230.306C131.947 232.098 132.852 233.55 133.968 233.55H179.768C180.884 233.55 181.788 232.098 181.788 230.306V219.494C181.788 217.702 180.884 216.25 179.768 216.25Z" fill="#1A5FB5"/>
<path d="M140.029 134.075C141.517 134.075 142.724 132.138 142.724 129.75C142.724 127.361 141.517 125.425 140.029 125.425C138.542 125.425 137.335 127.361 137.335 129.75C137.335 132.138 138.542 134.075 140.029 134.075Z" fill="#A6D2F3"/>
<path opacity="0.6" d="M140.029 157.862C141.517 157.862 142.724 155.926 142.724 153.537C142.724 151.149 141.517 149.212 140.029 149.212C138.542 149.212 137.335 151.149 137.335 153.537C137.335 155.926 138.542 157.862 140.029 157.862Z" fill="white"/>
<path d="M140.029 181.65C141.517 181.65 142.724 179.714 142.724 177.325C142.724 174.936 141.517 173 140.029 173C138.542 173 137.335 174.936 137.335 177.325C137.335 179.714 138.542 181.65 140.029 181.65Z" fill="#A6D2F3"/>
<path opacity="0.6" d="M140.029 205.438C141.517 205.438 142.724 203.501 142.724 201.113C142.724 198.724 141.517 196.788 140.029 196.788C138.542 196.788 137.335 198.724 137.335 201.113C137.335 203.501 138.542 205.438 140.029 205.438Z" fill="white"/>
<path d="M140.029 229.225C141.517 229.225 142.724 227.289 142.724 224.9C142.724 222.512 141.517 220.575 140.029 220.575C138.542 220.575 137.335 222.512 137.335 224.9C137.335 227.289 138.542 229.225 140.029 229.225Z" fill="#A6D2F3"/>
<path d="M404.053 108.125H354.212C351.236 108.125 348.823 111.998 348.823 116.775V250.85C348.823 255.627 351.236 259.5 354.212 259.5H404.053C407.029 259.5 409.441 255.627 409.441 250.85V116.775C409.441 111.998 407.029 108.125 404.053 108.125Z" fill="#2F80ED"/>
<path d="M402.032 121.1H356.232C355.116 121.1 354.212 122.552 354.212 124.344V135.156C354.212 136.948 355.116 138.4 356.232 138.4H402.032C403.148 138.4 404.053 136.948 404.053 135.156V124.344C404.053 122.552 403.148 121.1 402.032 121.1Z" fill="#1A5FB5"/>
<path d="M402.032 144.888H356.232C355.116 144.888 354.212 146.34 354.212 148.131V158.944C354.212 160.735 355.116 162.188 356.232 162.188H402.032C403.148 162.188 404.053 160.735 404.053 158.944V148.131C404.053 146.34 403.148 144.888 402.032 144.888Z" fill="#1A5FB5"/>
<path d="M402.032 168.675H356.232C355.116 168.675 354.212 170.127 354.212 171.919V182.731C354.212 184.523 355.116 185.975 356.232 185.975H402.032C403.148 185.975 404.053 184.523 404.053 182.731V171.919C404.053 170.127 403.148 168.675 402.032 168.675Z" fill="#1A5FB5"/>
<path d="M402.032 192.462H356.232C355.116 192.462 354.212 193.915 354.212 195.706V206.519C354.212 208.31 355.116 209.762 356.232 209.762H402.032C403.148 209.762 404.053 208.31 404.053 206.519V195.706C404.053 193.915 403.148 192.462 402.032 192.462Z" fill="#1A5FB5"/>
<path d="M402.032 216.25H356.232C355.116 216.25 354.212 217.702 354.212 219.494V230.306C354.212 232.098 355.116 233.55 356.232 233.55H402.032C403.148 233.55 404.053 232.098 404.053 230.306V219.494C404.053 217.702 403.148 216.25 402.032 216.25Z" fill="#1A5FB5"/>
<path opacity="0.6" d="M362.294 134.075C363.782 134.075 364.988 132.138 364.988 129.75C364.988 127.361 363.782 125.425 362.294 125.425C360.806 125.425 359.6 127.361 359.6 129.75C359.6 132.138 360.806 134.075 362.294 134.075Z" fill="white"/>
<path d="M362.294 157.862C363.782 157.862 364.988 155.926 364.988 153.537C364.988 151.149 363.782 149.212 362.294 149.212C360.806 149.212 359.6 151.149 359.6 153.537C359.6 155.926 360.806 157.862 362.294 157.862Z" fill="#A6D2F3"/>
<path opacity="0.6" d="M362.294 181.65C363.782 181.65 364.988 179.714 364.988 177.325C364.988 174.936 363.782 173 362.294 173C360.806 173 359.6 174.936 359.6 177.325C359.6 179.714 360.806 181.65 362.294 181.65Z" fill="white"/>
<path d="M362.294 205.438C363.782 205.438 364.988 203.501 364.988 201.113C364.988 198.724 363.782 196.788 362.294 196.788C360.806 196.788 359.6 198.724 359.6 201.113C359.6 203.501 360.806 205.438 362.294 205.438Z" fill="#A6D2F3"/>
<path opacity="0.6" d="M362.294 229.225C363.782 229.225 364.988 227.289 364.988 224.9C364.988 222.512 363.782 220.575 362.294 220.575C360.806 220.575 359.6 222.512 359.6 224.9C359.6 227.289 360.806 229.225 362.294 229.225Z" fill="white"/>
<path d="M296.962 124.344H239.038C234.574 124.344 230.956 130.153 230.956 137.319V230.306C230.956 237.472 234.574 243.281 239.038 243.281H296.962C301.425 243.281 305.044 237.472 305.044 230.306V137.319C305.044 130.153 301.425 124.344 296.962 124.344Z" fill="#2F80ED"/>
<path d="M290.9 138.4H245.1C242.124 138.4 239.712 142.273 239.712 147.05V220.575C239.712 225.352 242.124 229.225 245.1 229.225H290.9C293.876 229.225 296.288 225.352 296.288 220.575V147.05C296.288 142.273 293.876 138.4 290.9 138.4Z" fill="#1A5FB5"/>
<path d="M251.835 160.025H284.165" stroke="#A6D2F3" stroke-width="1.5"/>
<path d="M251.835 175.163H284.165" stroke="#A6D2F3" stroke-width="1.5"/>
<path d="M251.835 190.3H284.165" stroke="#A6D2F3" stroke-width="1.5"/>
<path d="M251.835 205.438H284.165" stroke="#A6D2F3" stroke-width="1.5"/>
<path d="M251.835 163.269C252.951 163.269 253.856 161.816 253.856 160.025C253.856 158.234 252.951 156.781 251.835 156.781C250.719 156.781 249.815 158.234 249.815 160.025C249.815 161.816 250.719 163.269 251.835 163.269Z" fill="white"/>
<path d="M284.165 178.406C285.281 178.406 286.185 176.954 286.185 175.163C286.185 173.371 285.281 171.919 284.165 171.919C283.049 171.919 282.144 173.371 282.144 175.163C282.144 176.954 283.049 178.406 284.165 178.406Z" fill="white"/>
<path d="M251.835 193.544C252.951 193.544 253.856 192.091 253.856 190.3C253.856 188.508 252.951 187.056 251.835 187.056C250.719 187.056 249.815 188.508 249.815 190.3C249.815 192.091 250.719 193.544 251.835 193.544Z" fill="white"/>
<path d="M284.165 208.681C285.281 208.681 286.185 207.229 286.185 205.438C286.185 203.646 285.281 202.194 284.165 202.194C283.049 202.194 282.144 203.646 282.144 205.438C282.144 207.229 283.049 208.681 284.165 208.681Z" fill="white"/>
<path d="M268 205.438C275.44 205.438 281.471 195.756 281.471 183.812C281.471 171.869 275.44 162.188 268 162.188C260.56 162.188 254.529 171.869 254.529 183.812C254.529 195.756 260.56 205.438 268 205.438Z" stroke="#A6D2F3" stroke-width="1.5" stroke-dasharray="4 3"/>
<path d="M268 192.463C270.976 192.463 273.388 188.59 273.388 183.813C273.388 179.035 270.976 175.163 268 175.163C265.024 175.163 262.612 179.035 262.612 183.813C262.612 188.59 265.024 192.463 268 192.463Z" fill="#2F80ED"/>
<path d="M268 188.137C269.488 188.137 270.694 186.201 270.694 183.812C270.694 181.424 269.488 179.487 268 179.487C266.512 179.487 265.306 181.424 265.306 183.812C265.306 186.201 266.512 188.137 268 188.137Z" fill="white"/>
<path d="M187.177 183.812H230.956" stroke="#A6D2F3" stroke-width="2" stroke-dasharray="6 4"/>
<path d="M305.044 183.812H348.824" stroke="#A6D2F3" stroke-width="2" stroke-dasharray="6 4"/>
<path opacity="0.7" d="M204.015 101.637C209.222 101.637 213.444 94.86 213.444 86.4998C213.444 78.1396 209.222 71.3623 204.015 71.3623C198.807 71.3623 194.585 78.1396 194.585 86.4998C194.585 94.86 198.807 101.637 204.015 101.637Z" fill="#A6D2F3"/>
<path d="M204.015 92.9877C206.247 92.9877 208.056 90.0831 208.056 86.5002C208.056 82.9172 206.247 80.0127 204.015 80.0127C201.783 80.0127 199.974 82.9172 199.974 86.5002C199.974 90.0831 201.783 92.9877 204.015 92.9877Z" fill="#2F80ED"/>
<path d="M204.015 101.638V140.563" stroke="#A6D2F3" stroke-width="1.5" stroke-dasharray="3 3"/>
<path opacity="0.7" d="M331.985 99.4752C337.193 99.4752 341.415 92.6979 341.415 84.3377C341.415 75.9775 337.193 69.2002 331.985 69.2002C326.778 69.2002 322.556 75.9775 322.556 84.3377C322.556 92.6979 326.778 99.4752 331.985 99.4752Z" fill="#A6D2F3"/>
<path d="M331.985 90.8251C334.217 90.8251 336.026 87.9205 336.026 84.3376C336.026 80.7547 334.217 77.8501 331.985 77.8501C329.753 77.8501 327.944 80.7547 327.944 84.3376C327.944 87.9205 329.753 90.8251 331.985 90.8251Z" fill="#2F80ED"/>
<path d="M331.985 99.4751V140.563" stroke="#A6D2F3" stroke-width="1.5" stroke-dasharray="3 3"/>
<path opacity="0.3" d="M407.421 268.15H128.579C127.463 268.15 126.559 269.602 126.559 271.394C126.559 273.185 127.463 274.637 128.579 274.637H407.421C408.537 274.637 409.441 273.185 409.441 271.394C409.441 269.602 408.537 268.15 407.421 268.15Z" fill="#A6D2F3"/>
</g>
<defs>
<clipPath id="clip0_173_1046">
<rect width="458" height="346" fill="white" transform="translate(39)"/>
</clipPath>
</defs>
</svg>
