<svg preserveAspectRatio="none" width="100%" height="100%" overflow="visible" style="display: block;" viewBox="0 0 44 45" fill="none" xmlns="http://www.w3.org/2000/svg">
<g id="Overlay">
<rect width="44" height="45" rx="4" fill="var(--fill-0, #A6D2F3)" fill-opacity="0.2"/>
<path id="Icon" d="M13.625 25.025L12 23.85L17 15.85L20 19.35L24 12.85L27 17.35L30.375 12L32 13.175L27.05 21.025L24.075 16.55L20.275 22.725L17.25 19.2L13.625 25.025V25.025M25.5 29C26.2 29 26.7917 28.7583 27.275 28.275C27.7583 27.7917 28 27.2 28 26.5C28 25.8 27.7583 25.2083 27.275 24.725C26.7917 24.2417 26.2 24 25.5 24C24.8 24 24.2083 24.2417 23.725 24.725C23.2417 25.2083 23 25.8 23 26.5C23 27.2 23.2417 27.7917 23.725 28.275C24.2083 28.7583 24.8 29 25.5 29V29M30.6 33L27.9 30.3C27.55 30.5333 27.1708 30.7083 26.7625 30.825C26.3542 30.9417 25.9333 31 25.5 31C24.25 31 23.1875 30.5625 22.3125 29.6875C21.4375 28.8125 21 27.75 21 26.5C21 25.25 21.4375 24.1875 22.3125 23.3125C23.1875 22.4375 24.25 22 25.5 22C26.75 22 27.8125 22.4375 28.6875 23.3125C29.5625 24.1875 30 25.25 30 26.5C30 26.9333 29.9417 27.3542 29.825 27.7625C29.7083 28.1708 29.5333 28.55 29.3 28.9L32 31.6L30.6 33V33" fill="var(--fill-0, #2F80ED)"/>
</g>
</svg>
