<svg preserveAspectRatio="none" width="100%" height="100%" overflow="visible" style="display: block;" viewBox="0 0 27.5 22.5" fill="none" xmlns="http://www.w3.org/2000/svg">
<g id="Container">
<path id="Icon" d="M20 7.5H22.5V5H20V7.5V7.5M20 12.5H22.5V10H20V12.5V12.5M20 17.5H22.5V15H20V17.5V17.5M20 22.5V20H25V2.5H13.75V4.25L11.25 2.4375V0H27.5V22.5H20V22.5M0 22.5V10L8.75 3.75L17.5 10V22.5H10V16.25H7.5V22.5H0V22.5M2.5 20H5V13.75H12.5V20H15V11.25L8.75 6.8125L2.5 11.25V20V20M20 8.75V8.75V8.75V8.75V8.75V8.75V8.75V8.75M12.5 20V20V13.75H5V20V20V13.75H8.75H12.5V20V20" fill="var(--fill-0, black)"/>
</g>
</svg>
