<svg width="437" height="509" viewBox="0 0 437 509" fill="none" xmlns="http://www.w3.org/2000/svg">
<path opacity="0.18" d="M198 470C274.768 470 337 373.517 337 254.5C337 135.483 274.768 39 198 39C121.232 39 59 135.483 59 254.5C59 373.517 121.232 470 198 470Z" fill="#A6D2F3"/>
<path d="M323.106 0H151.894C135.384 0 122 19.2828 122 43.0692V465.931C122 489.717 135.384 509 151.894 509H323.106C339.616 509 353 489.717 353 465.931V43.0692C353 19.2828 339.616 0 323.106 0Z" fill="#1A5FB5"/>
<path d="M325.333 8H149.667C137.148 8 127 22.7448 127 40.9333V469.067C127 487.255 137.148 502 149.667 502H325.333C337.852 502 348 487.255 348 469.067V40.9333C348 22.7448 337.852 8 325.333 8Z" fill="white"/>
<path d="M261.483 12H205.517C200.813 12 197 18.0442 197 25.5C197 32.9558 200.813 39 205.517 39H261.483C266.187 39 270 32.9558 270 25.5C270 18.0442 266.187 12 261.483 12Z" fill="#1A5FB5"/>
<path opacity="0.5" d="M336.615 45H137.385C134.411 45 132 48.5021 132 52.8222V213.178C132 217.498 134.411 221 137.385 221H336.615C339.589 221 342 217.498 342 213.178V52.8222C342 48.5021 339.589 45 336.615 45Z" fill="#A6D2F3"/>
<path opacity="0.5" d="M206 52H309.765" stroke="#2F80ED" stroke-width="1.5"/>
<path opacity="0.5" d="M213 49L175 218" stroke="#2F80ED" stroke-width="1.5"/>
<path opacity="0.4" d="M206 216L318 161" stroke="#2F80ED"/>
<path opacity="0.4" d="M234 142L284 126" stroke="#2F80ED"/>
<path opacity="0.4" d="M252 54L326 171" stroke="#2F80ED"/>
<path d="M213 132C216.866 132 220 128.866 220 125C220 121.134 216.866 118 213 118C209.134 118 206 121.134 206 125C206 128.866 209.134 132 213 132Z" fill="#2F80ED"/>
<path d="M213 128C215.209 128 217 126.657 217 125C217 123.343 215.209 122 213 122C210.791 122 209 123.343 209 125C209 126.657 210.791 128 213 128Z" fill="white"/>
<path d="M144 202C185.111 123.667 215.944 96.25 236.5 119.75C262.194 143.25 293.028 123.667 329 61" stroke="#2F80ED" stroke-width="2" stroke-dasharray="5 3"/>
<path d="M217.727 248H161.273C157.808 248 155 251.676 155 256.211V291.789C155 296.324 157.808 300 161.273 300H217.727C221.192 300 224 296.324 224 291.789V256.211C224 251.676 221.192 248 217.727 248Z" fill="#2F80ED"/>
<path d="M167.967 264V257.455H171.918V258.158H168.76V260.369H171.713V261.072H168.76V263.297H171.969V264H167.967ZM174.689 264.115C174.378 264.115 174.095 264.056 173.842 263.939C173.588 263.82 173.387 263.648 173.238 263.425C173.089 263.199 173.014 262.926 173.014 262.607C173.014 262.325 173.069 262.097 173.18 261.923C173.291 261.746 173.439 261.607 173.624 261.507C173.81 261.407 174.014 261.332 174.238 261.283C174.464 261.232 174.691 261.192 174.919 261.162C175.217 261.124 175.459 261.095 175.644 261.076C175.832 261.054 175.968 261.019 176.053 260.97C176.141 260.921 176.184 260.836 176.184 260.714V260.689C176.184 260.374 176.098 260.129 175.926 259.954C175.755 259.779 175.496 259.692 175.149 259.692C174.789 259.692 174.506 259.771 174.302 259.928C174.097 260.086 173.954 260.254 173.87 260.433L173.155 260.178C173.282 259.879 173.453 259.647 173.666 259.481C173.881 259.312 174.116 259.195 174.369 259.129C174.625 259.061 174.876 259.027 175.123 259.027C175.281 259.027 175.462 259.046 175.667 259.085C175.873 259.121 176.073 259.196 176.264 259.311C176.458 259.426 176.619 259.6 176.747 259.832C176.875 260.065 176.939 260.376 176.939 260.766V264H176.184V263.335H176.146C176.095 263.442 176.01 263.556 175.89 263.677C175.771 263.799 175.612 263.902 175.414 263.987C175.216 264.072 174.974 264.115 174.689 264.115ZM174.804 263.438C175.102 263.438 175.353 263.379 175.558 263.262C175.765 263.145 175.92 262.993 176.025 262.808C176.131 262.623 176.184 262.428 176.184 262.223V261.533C176.152 261.571 176.082 261.606 175.973 261.638C175.867 261.668 175.743 261.695 175.603 261.718C175.464 261.739 175.329 261.759 175.197 261.776C175.067 261.79 174.961 261.803 174.88 261.814C174.684 261.839 174.501 261.881 174.331 261.939C174.162 261.994 174.026 262.078 173.922 262.191C173.819 262.302 173.768 262.453 173.768 262.645C173.768 262.907 173.865 263.105 174.059 263.239C174.255 263.371 174.503 263.438 174.804 263.438ZM178.315 264V259.091H179.044V259.832H179.095C179.185 259.589 179.347 259.392 179.581 259.241C179.815 259.09 180.08 259.014 180.374 259.014C180.429 259.014 180.498 259.015 180.581 259.017C180.664 259.02 180.727 259.023 180.77 259.027V259.794C180.744 259.788 180.686 259.778 180.594 259.765C180.505 259.75 180.41 259.743 180.31 259.743C180.071 259.743 179.858 259.793 179.67 259.893C179.485 259.991 179.338 260.127 179.229 260.302C179.123 260.475 179.07 260.672 179.07 260.893V264H178.315ZM182.418 261.047V264H181.664V259.091H182.393V259.858H182.457C182.572 259.609 182.746 259.408 182.981 259.257C183.215 259.104 183.518 259.027 183.888 259.027C184.221 259.027 184.512 259.095 184.761 259.232C185.01 259.366 185.204 259.57 185.343 259.845C185.481 260.118 185.55 260.463 185.55 260.881V264H184.796V260.932C184.796 260.546 184.696 260.246 184.496 260.031C184.295 259.813 184.021 259.705 183.671 259.705C183.43 259.705 183.215 259.757 183.025 259.861C182.838 259.966 182.69 260.118 182.581 260.318C182.473 260.518 182.418 260.761 182.418 261.047ZM186.929 264V259.091H187.683V264H186.929ZM187.312 258.273C187.165 258.273 187.038 258.223 186.932 258.123C186.827 258.022 186.775 257.902 186.775 257.761C186.775 257.621 186.827 257.5 186.932 257.4C187.038 257.3 187.165 257.25 187.312 257.25C187.459 257.25 187.585 257.3 187.689 257.4C187.796 257.5 187.849 257.621 187.849 257.761C187.849 257.902 187.796 258.022 187.689 258.123C187.585 258.223 187.459 258.273 187.312 258.273ZM189.819 261.047V264H189.064V259.091H189.793V259.858H189.857C189.972 259.609 190.147 259.408 190.381 259.257C190.616 259.104 190.918 259.027 191.289 259.027C191.621 259.027 191.912 259.095 192.161 259.232C192.411 259.366 192.604 259.57 192.743 259.845C192.881 260.118 192.951 260.463 192.951 260.881V264H192.196V260.932C192.196 260.546 192.096 260.246 191.896 260.031C191.696 259.813 191.421 259.705 191.071 259.705C190.831 259.705 190.616 259.757 190.426 259.861C190.238 259.966 190.09 260.118 189.982 260.318C189.873 260.518 189.819 260.761 189.819 261.047ZM196.311 265.943C195.946 265.943 195.633 265.896 195.371 265.803C195.109 265.711 194.89 265.589 194.716 265.438C194.543 265.289 194.406 265.129 194.303 264.959L194.904 264.537C194.972 264.626 195.059 264.729 195.163 264.844C195.268 264.961 195.41 265.062 195.591 265.147C195.775 265.235 196.014 265.278 196.311 265.278C196.707 265.278 197.034 265.183 197.292 264.991C197.55 264.799 197.678 264.499 197.678 264.089V263.092H197.615C197.559 263.182 197.48 263.293 197.378 263.425C197.278 263.555 197.133 263.671 196.943 263.773C196.756 263.873 196.502 263.923 196.183 263.923C195.786 263.923 195.431 263.83 195.115 263.642C194.802 263.455 194.554 263.182 194.371 262.824C194.189 262.466 194.099 262.031 194.099 261.52C194.099 261.017 194.187 260.579 194.364 260.206C194.541 259.831 194.787 259.542 195.102 259.337C195.418 259.13 195.782 259.027 196.195 259.027C196.515 259.027 196.769 259.08 196.956 259.187C197.146 259.291 197.291 259.411 197.391 259.545C197.493 259.677 197.572 259.786 197.627 259.871H197.704V259.091H198.433V264.141C198.433 264.562 198.337 264.906 198.145 265.17C197.955 265.436 197.7 265.631 197.378 265.755C197.058 265.88 196.703 265.943 196.311 265.943ZM196.285 263.246C196.588 263.246 196.843 263.176 197.052 263.038C197.261 262.9 197.42 262.7 197.528 262.44C197.637 262.18 197.691 261.869 197.691 261.507C197.691 261.153 197.638 260.841 197.531 260.571C197.425 260.3 197.267 260.088 197.058 259.935C196.85 259.781 196.592 259.705 196.285 259.705C195.965 259.705 195.699 259.786 195.486 259.947C195.275 260.109 195.116 260.327 195.01 260.599C194.905 260.872 194.853 261.175 194.853 261.507C194.853 261.848 194.906 262.15 195.013 262.412C195.122 262.672 195.281 262.876 195.492 263.025C195.705 263.172 195.97 263.246 196.285 263.246ZM203.291 260.19L202.613 260.382C202.57 260.269 202.508 260.159 202.425 260.053C202.344 259.944 202.233 259.855 202.092 259.784C201.952 259.714 201.771 259.679 201.552 259.679C201.252 259.679 201.001 259.748 200.801 259.887C200.603 260.023 200.504 260.197 200.504 260.408C200.504 260.595 200.572 260.743 200.708 260.852C200.845 260.961 201.058 261.051 201.347 261.124L202.076 261.303C202.515 261.409 202.842 261.572 203.057 261.792C203.273 262.009 203.38 262.289 203.38 262.632C203.38 262.913 203.299 263.165 203.137 263.386C202.977 263.608 202.754 263.783 202.466 263.911C202.178 264.038 201.844 264.102 201.463 264.102C200.962 264.102 200.547 263.994 200.219 263.776C199.891 263.559 199.683 263.241 199.596 262.824L200.312 262.645C200.38 262.909 200.509 263.107 200.699 263.239C200.89 263.371 201.141 263.438 201.45 263.438C201.801 263.438 202.08 263.363 202.287 263.214C202.496 263.062 202.6 262.881 202.6 262.67C202.6 262.5 202.541 262.357 202.421 262.242C202.302 262.125 202.119 262.038 201.872 261.98L201.053 261.788C200.604 261.682 200.274 261.517 200.063 261.293C199.854 261.067 199.749 260.785 199.749 260.446C199.749 260.169 199.827 259.924 199.983 259.711C200.14 259.498 200.355 259.331 200.625 259.209C200.898 259.088 201.207 259.027 201.552 259.027C202.038 259.027 202.419 259.134 202.696 259.347C202.975 259.56 203.173 259.841 203.291 260.19Z" fill="#A6D2F3"/>
<path d="M165.108 288V279.273H168.551C169.21 279.273 169.773 279.391 170.239 279.626C170.708 279.859 171.064 280.19 171.308 280.619C171.556 281.045 171.679 281.547 171.679 282.124C171.679 282.703 171.554 283.202 171.304 283.619C171.054 284.034 170.692 284.352 170.218 284.574C169.746 284.795 169.175 284.906 168.504 284.906H166.199V283.423H168.206C168.558 283.423 168.851 283.375 169.084 283.278C169.317 283.182 169.49 283.037 169.604 282.844C169.72 282.651 169.779 282.411 169.779 282.124C169.779 281.834 169.72 281.589 169.604 281.391C169.49 281.192 169.316 281.041 169.08 280.939C168.847 280.834 168.553 280.781 168.198 280.781H166.953V288H165.108ZM169.821 284.028L171.99 288H169.953L167.831 284.028H169.821ZM172.983 279.273H175.259L177.662 285.136H177.764L180.168 279.273H182.443V288H180.654V282.32H180.581L178.323 287.957H177.104L174.845 282.298H174.773V288H172.983V279.273ZM189.945 288.119C189.289 288.119 188.705 288.013 188.194 287.8C187.686 287.584 187.286 287.29 186.997 286.918C186.707 286.545 186.562 286.124 186.562 285.652C186.562 285.288 186.644 284.955 186.809 284.651C186.977 284.344 187.204 284.089 187.491 283.888C187.778 283.683 188.099 283.553 188.454 283.496V283.436C187.988 283.342 187.61 283.116 187.32 282.759C187.031 282.398 186.886 281.979 186.886 281.501C186.886 281.05 187.018 280.648 187.282 280.295C187.546 279.94 187.909 279.662 188.369 279.46C188.832 279.256 189.357 279.153 189.945 279.153C190.534 279.153 191.058 279.256 191.518 279.46C191.981 279.665 192.345 279.945 192.609 280.3C192.873 280.652 193.007 281.053 193.009 281.501C193.007 281.982 192.859 282.401 192.566 282.759C192.274 283.116 191.899 283.342 191.441 283.436V283.496C191.791 283.553 192.107 283.683 192.392 283.888C192.678 284.089 192.906 284.344 193.073 284.651C193.244 284.955 193.33 285.288 193.333 285.652C193.33 286.124 193.184 286.545 192.894 286.918C192.605 287.29 192.204 287.584 191.693 287.8C191.184 288.013 190.602 288.119 189.945 288.119ZM189.945 286.764C190.238 286.764 190.494 286.712 190.713 286.607C190.931 286.499 191.102 286.351 191.224 286.163C191.349 285.973 191.411 285.754 191.411 285.507C191.411 285.254 191.347 285.031 191.22 284.838C191.092 284.642 190.919 284.489 190.7 284.378C190.481 284.264 190.23 284.207 189.945 284.207C189.664 284.207 189.413 284.264 189.191 284.378C188.97 284.489 188.795 284.642 188.667 284.838C188.542 285.031 188.48 285.254 188.48 285.507C188.48 285.754 188.541 285.973 188.663 286.163C188.785 286.351 188.957 286.499 189.178 286.607C189.4 286.712 189.656 286.764 189.945 286.764ZM189.945 282.865C190.19 282.865 190.407 282.815 190.597 282.716C190.788 282.616 190.937 282.479 191.045 282.303C191.153 282.126 191.207 281.923 191.207 281.693C191.207 281.466 191.153 281.267 191.045 281.097C190.937 280.923 190.789 280.788 190.602 280.692C190.414 280.592 190.195 280.543 189.945 280.543C189.698 280.543 189.48 280.592 189.289 280.692C189.099 280.788 188.95 280.923 188.842 281.097C188.737 281.267 188.684 281.466 188.684 281.693C188.684 281.923 188.738 282.126 188.846 282.303C188.954 282.479 189.103 282.616 189.294 282.716C189.484 282.815 189.701 282.865 189.945 282.865ZM197.811 288.119C197.209 288.119 196.672 288.009 196.2 287.787C195.731 287.565 195.359 287.26 195.084 286.871C194.808 286.482 194.665 286.036 194.653 285.533H196.443C196.463 285.871 196.605 286.145 196.869 286.355C197.133 286.565 197.447 286.67 197.811 286.67C198.101 286.67 198.356 286.607 198.578 286.479C198.802 286.348 198.977 286.168 199.102 285.938C199.23 285.705 199.294 285.437 199.294 285.136C199.294 284.83 199.229 284.56 199.098 284.327C198.97 284.094 198.792 283.912 198.565 283.781C198.338 283.651 198.078 283.584 197.785 283.581C197.53 283.581 197.281 283.634 197.04 283.739C196.801 283.844 196.615 283.987 196.481 284.169L194.841 283.875L195.254 279.273H200.589V280.781H196.775L196.55 282.967H196.601C196.754 282.751 196.986 282.572 197.295 282.43C197.605 282.288 197.952 282.217 198.335 282.217C198.861 282.217 199.329 282.341 199.741 282.588C200.153 282.835 200.479 283.175 200.717 283.607C200.956 284.036 201.074 284.53 201.071 285.089C201.074 285.678 200.937 286.2 200.662 286.658C200.389 287.112 200.007 287.47 199.515 287.732C199.027 287.99 198.459 288.119 197.811 288.119Z" fill="white"/>
<path opacity="0.4" d="M311.727 248H255.273C251.808 248 249 251.676 249 256.211V291.789C249 296.324 251.808 300 255.273 300H311.727C315.192 300 318 296.324 318 291.789V256.211C318 251.676 315.192 248 311.727 248Z" fill="#A6D2F3"/>
<path d="M273.349 260.727C273.349 261.418 273.224 262.014 272.975 262.517C272.725 263.02 272.383 263.408 271.949 263.68C271.514 263.953 271.018 264.089 270.459 264.089C269.901 264.089 269.405 263.953 268.97 263.68C268.535 263.408 268.193 263.02 267.944 262.517C267.695 262.014 267.57 261.418 267.57 260.727C267.57 260.037 267.695 259.44 267.944 258.938C268.193 258.435 268.535 258.047 268.97 257.774C269.405 257.501 269.901 257.365 270.459 257.365C271.018 257.365 271.514 257.501 271.949 257.774C272.383 258.047 272.725 258.435 272.975 258.938C273.224 259.44 273.349 260.037 273.349 260.727ZM272.581 260.727C272.581 260.161 272.487 259.682 272.297 259.292C272.11 258.902 271.855 258.607 271.533 258.407C271.214 258.207 270.856 258.107 270.459 258.107C270.063 258.107 269.704 258.207 269.382 258.407C269.063 258.607 268.808 258.902 268.618 259.292C268.431 259.682 268.337 260.161 268.337 260.727C268.337 261.294 268.431 261.772 268.618 262.162C268.808 262.552 269.063 262.847 269.382 263.048C269.704 263.248 270.063 263.348 270.459 263.348C270.856 263.348 271.214 263.248 271.533 263.048C271.855 262.847 272.11 262.552 272.297 262.162C272.487 261.772 272.581 261.294 272.581 260.727ZM274.579 264V259.091H275.308V259.832H275.359C275.448 259.589 275.61 259.392 275.845 259.241C276.079 259.09 276.343 259.014 276.637 259.014C276.693 259.014 276.762 259.015 276.845 259.017C276.928 259.02 276.991 259.023 277.034 259.027V259.794C277.008 259.788 276.949 259.778 276.858 259.765C276.768 259.75 276.673 259.743 276.573 259.743C276.335 259.743 276.122 259.793 275.934 259.893C275.749 259.991 275.602 260.127 275.493 260.302C275.387 260.475 275.333 260.672 275.333 260.893V264H274.579ZM279.632 264.102C279.223 264.102 278.862 263.999 278.548 263.792C278.235 263.583 277.99 263.289 277.813 262.91C277.637 262.529 277.548 262.078 277.548 261.558C277.548 261.043 277.637 260.595 277.813 260.216C277.99 259.837 278.236 259.544 278.552 259.337C278.867 259.13 279.231 259.027 279.645 259.027C279.964 259.027 280.217 259.08 280.402 259.187C280.59 259.291 280.732 259.411 280.83 259.545C280.931 259.677 281.008 259.786 281.064 259.871H281.128V257.455H281.882V264H281.153V263.246H281.064C281.008 263.335 280.93 263.448 280.827 263.585C280.725 263.719 280.579 263.839 280.389 263.946C280.2 264.05 279.947 264.102 279.632 264.102ZM279.734 263.425C280.037 263.425 280.292 263.346 280.501 263.188C280.71 263.028 280.869 262.808 280.977 262.527C281.086 262.243 281.14 261.916 281.14 261.545C281.14 261.179 281.087 260.858 280.981 260.583C280.874 260.306 280.716 260.091 280.508 259.938C280.299 259.782 280.041 259.705 279.734 259.705C279.415 259.705 279.148 259.787 278.935 259.951C278.724 260.113 278.566 260.333 278.459 260.612C278.355 260.889 278.302 261.2 278.302 261.545C278.302 261.895 278.356 262.212 278.462 262.498C278.571 262.781 278.731 263.007 278.942 263.175C279.155 263.342 279.419 263.425 279.734 263.425ZM285.426 264.102C284.953 264.102 284.545 263.998 284.202 263.789C283.861 263.578 283.598 263.284 283.413 262.907C283.23 262.528 283.138 262.087 283.138 261.584C283.138 261.081 283.23 260.638 283.413 260.254C283.598 259.869 283.856 259.568 284.186 259.353C284.519 259.136 284.906 259.027 285.35 259.027C285.605 259.027 285.858 259.07 286.107 259.155C286.356 259.24 286.583 259.379 286.788 259.57C286.992 259.76 287.155 260.011 287.277 260.325C287.398 260.638 287.459 261.023 287.459 261.482V261.801H283.675V261.149H286.692C286.692 260.872 286.637 260.625 286.526 260.408C286.417 260.19 286.262 260.019 286.059 259.893C285.859 259.767 285.622 259.705 285.35 259.705C285.049 259.705 284.789 259.779 284.57 259.928C284.352 260.075 284.185 260.267 284.068 260.504C283.951 260.74 283.892 260.994 283.892 261.264V261.699C283.892 262.07 283.956 262.384 284.084 262.642C284.214 262.897 284.394 263.092 284.624 263.227C284.854 263.359 285.122 263.425 285.426 263.425C285.624 263.425 285.803 263.397 285.963 263.342C286.125 263.284 286.265 263.199 286.382 263.086C286.499 262.971 286.59 262.828 286.654 262.658L287.382 262.862C287.306 263.109 287.177 263.327 286.996 263.514C286.814 263.7 286.591 263.844 286.324 263.949C286.058 264.051 285.759 264.102 285.426 264.102ZM288.606 264V259.091H289.335V259.832H289.386C289.476 259.589 289.638 259.392 289.872 259.241C290.106 259.09 290.371 259.014 290.665 259.014C290.72 259.014 290.789 259.015 290.872 259.017C290.955 259.02 291.018 259.023 291.061 259.027V259.794C291.035 259.788 290.977 259.778 290.885 259.765C290.796 259.75 290.701 259.743 290.601 259.743C290.362 259.743 290.149 259.793 289.961 259.893C289.776 259.991 289.629 260.127 289.52 260.302C289.414 260.475 289.361 260.672 289.361 260.893V264H288.606ZM295.432 260.19L294.755 260.382C294.712 260.269 294.649 260.159 294.566 260.053C294.485 259.944 294.374 259.855 294.234 259.784C294.093 259.714 293.913 259.679 293.694 259.679C293.393 259.679 293.143 259.748 292.943 259.887C292.744 260.023 292.645 260.197 292.645 260.408C292.645 260.595 292.714 260.743 292.85 260.852C292.986 260.961 293.199 261.051 293.489 261.124L294.218 261.303C294.657 261.409 294.984 261.572 295.199 261.792C295.414 262.009 295.522 262.289 295.522 262.632C295.522 262.913 295.441 263.165 295.279 263.386C295.119 263.608 294.895 263.783 294.608 263.911C294.32 264.038 293.986 264.102 293.604 264.102C293.103 264.102 292.689 263.994 292.361 263.776C292.033 263.559 291.825 263.241 291.738 262.824L292.454 262.645C292.522 262.909 292.651 263.107 292.84 263.239C293.032 263.371 293.282 263.438 293.591 263.438C293.943 263.438 294.222 263.363 294.429 263.214C294.638 263.062 294.742 262.881 294.742 262.67C294.742 262.5 294.682 262.357 294.563 262.242C294.444 262.125 294.26 262.038 294.013 261.98L293.195 261.788C292.745 261.682 292.415 261.517 292.204 261.293C291.995 261.067 291.891 260.785 291.891 260.446C291.891 260.169 291.969 259.924 292.124 259.711C292.282 259.498 292.496 259.331 292.767 259.209C293.04 259.088 293.348 259.027 293.694 259.027C294.179 259.027 294.561 259.134 294.838 259.347C295.117 259.56 295.315 259.841 295.432 260.19Z" fill="#2F80ED"/>
<path d="M279.289 279.273V288H277.444V281.024H277.393L275.395 282.277V280.641L277.555 279.273H279.289ZM281.364 288V286.67L284.47 283.794C284.734 283.538 284.956 283.308 285.135 283.104C285.317 282.899 285.455 282.699 285.548 282.503C285.642 282.304 285.689 282.089 285.689 281.859C285.689 281.604 285.631 281.384 285.514 281.199C285.398 281.011 285.239 280.868 285.037 280.768C284.835 280.666 284.607 280.615 284.351 280.615C284.084 280.615 283.851 280.669 283.652 280.777C283.453 280.885 283.3 281.04 283.192 281.241C283.084 281.443 283.03 281.683 283.03 281.962H281.278C281.278 281.391 281.408 280.895 281.666 280.474C281.925 280.054 282.287 279.729 282.753 279.499C283.219 279.268 283.756 279.153 284.364 279.153C284.989 279.153 285.533 279.264 285.996 279.486C286.462 279.705 286.824 280.009 287.082 280.398C287.341 280.787 287.47 281.233 287.47 281.736C287.47 282.065 287.405 282.391 287.274 282.712C287.146 283.033 286.918 283.389 286.588 283.781C286.259 284.17 285.794 284.638 285.195 285.183L283.92 286.432V286.491H287.585V288H281.364Z" fill="#1A5FB5"/>
<path d="M310.913 327H162.087C158.173 327 155 332.265 155 338.76V413.24C155 419.735 158.173 425 162.087 425H310.913C314.827 425 318 419.735 318 413.24V338.76C318 332.265 314.827 327 310.913 327Z" fill="#F0F7FF"/>
<path d="M193.5 369C194.328 369 195 368.328 195 367.5C195 366.672 194.328 366 193.5 366C192.672 366 192 366.672 192 367.5C192 368.328 192.672 369 193.5 369Z" fill="#2F80ED"/>
<path d="M224.983 342.455V349H224.216L220.649 343.861H220.585V349H219.793V342.455H220.56L224.139 347.607H224.203V342.455H224.983ZM228.525 349.102C228.052 349.102 227.644 348.998 227.301 348.789C226.96 348.578 226.697 348.284 226.511 347.907C226.328 347.528 226.237 347.087 226.237 346.584C226.237 346.081 226.328 345.638 226.511 345.254C226.697 344.869 226.955 344.568 227.285 344.353C227.617 344.136 228.005 344.027 228.448 344.027C228.704 344.027 228.956 344.07 229.206 344.155C229.455 344.24 229.682 344.379 229.886 344.57C230.091 344.76 230.254 345.011 230.375 345.325C230.497 345.638 230.558 346.023 230.558 346.482V346.801H226.774V346.149H229.791C229.791 345.872 229.735 345.625 229.624 345.408C229.516 345.19 229.36 345.019 229.158 344.893C228.957 344.767 228.721 344.705 228.448 344.705C228.148 344.705 227.888 344.779 227.668 344.928C227.451 345.075 227.284 345.267 227.167 345.504C227.049 345.74 226.991 345.994 226.991 346.264V346.699C226.991 347.07 227.055 347.384 227.183 347.642C227.313 347.897 227.493 348.092 227.723 348.227C227.953 348.359 228.22 348.425 228.525 348.425C228.723 348.425 228.902 348.397 229.062 348.342C229.224 348.284 229.363 348.199 229.481 348.086C229.598 347.971 229.688 347.828 229.752 347.658L230.481 347.862C230.404 348.109 230.275 348.327 230.094 348.514C229.913 348.7 229.689 348.844 229.423 348.949C229.157 349.051 228.857 349.102 228.525 349.102ZM232.136 344.091L233.312 346.098L234.488 344.091H235.357L233.772 346.545L235.357 349H234.488L233.312 347.095L232.136 349H231.266L232.826 346.545L231.266 344.091H232.136ZM238.568 344.091V344.73H236.024V344.091H238.568ZM236.766 342.915H237.52V347.594C237.52 347.807 237.551 347.967 237.613 348.073C237.677 348.178 237.758 348.248 237.856 348.284C237.956 348.318 238.061 348.335 238.172 348.335C238.255 348.335 238.323 348.331 238.377 348.322C238.43 348.312 238.473 348.303 238.505 348.297L238.658 348.974C238.607 348.994 238.535 349.013 238.444 349.032C238.352 349.053 238.236 349.064 238.095 349.064C237.882 349.064 237.674 349.018 237.469 348.926C237.267 348.835 237.098 348.695 236.964 348.508C236.832 348.32 236.766 348.084 236.766 347.798V342.915ZM247.859 345.727C247.859 346.418 247.735 347.014 247.485 347.517C247.236 348.02 246.894 348.408 246.459 348.68C246.025 348.953 245.528 349.089 244.97 349.089C244.412 349.089 243.915 348.953 243.481 348.68C243.046 348.408 242.704 348.02 242.455 347.517C242.206 347.014 242.081 346.418 242.081 345.727C242.081 345.037 242.206 344.44 242.455 343.938C242.704 343.435 243.046 343.047 243.481 342.774C243.915 342.501 244.412 342.365 244.97 342.365C245.528 342.365 246.025 342.501 246.459 342.774C246.894 343.047 247.236 343.435 247.485 343.938C247.735 344.44 247.859 345.037 247.859 345.727ZM247.092 345.727C247.092 345.161 246.997 344.682 246.808 344.292C246.62 343.902 246.366 343.607 246.044 343.407C245.724 343.207 245.366 343.107 244.97 343.107C244.574 343.107 244.215 343.207 243.893 343.407C243.573 343.607 243.319 343.902 243.129 344.292C242.942 344.682 242.848 345.161 242.848 345.727C242.848 346.294 242.942 346.772 243.129 347.162C243.319 347.552 243.573 347.847 243.893 348.048C244.215 348.248 244.574 348.348 244.97 348.348C245.366 348.348 245.724 348.248 246.044 348.048C246.366 347.847 246.62 347.552 246.808 347.162C246.997 346.772 247.092 346.294 247.092 345.727ZM249.09 349V344.091H249.818V344.832H249.87C249.959 344.589 250.121 344.392 250.355 344.241C250.59 344.09 250.854 344.014 251.148 344.014C251.203 344.014 251.273 344.015 251.356 344.017C251.439 344.02 251.502 344.023 251.544 344.027V344.794C251.519 344.788 251.46 344.778 251.369 344.765C251.279 344.75 251.184 344.743 251.084 344.743C250.845 344.743 250.632 344.793 250.445 344.893C250.259 344.991 250.112 345.127 250.004 345.302C249.897 345.475 249.844 345.672 249.844 345.893V349H249.09ZM254.143 349.102C253.734 349.102 253.372 348.999 253.059 348.792C252.746 348.583 252.501 348.289 252.324 347.91C252.147 347.529 252.059 347.078 252.059 346.558C252.059 346.043 252.147 345.595 252.324 345.216C252.501 344.837 252.747 344.544 253.062 344.337C253.378 344.13 253.742 344.027 254.155 344.027C254.475 344.027 254.728 344.08 254.913 344.187C255.1 344.291 255.243 344.411 255.341 344.545C255.441 344.677 255.519 344.786 255.574 344.871H255.638V342.455H256.393V349H255.664V348.246H255.574C255.519 348.335 255.44 348.448 255.338 348.585C255.236 348.719 255.09 348.839 254.9 348.946C254.71 349.05 254.458 349.102 254.143 349.102ZM254.245 348.425C254.547 348.425 254.803 348.346 255.012 348.188C255.221 348.028 255.38 347.808 255.488 347.527C255.597 347.243 255.651 346.916 255.651 346.545C255.651 346.179 255.598 345.858 255.491 345.583C255.385 345.306 255.227 345.091 255.018 344.938C254.81 344.782 254.552 344.705 254.245 344.705C253.925 344.705 253.659 344.787 253.446 344.951C253.235 345.113 253.076 345.333 252.97 345.612C252.865 345.889 252.813 346.2 252.813 346.545C252.813 346.895 252.866 347.212 252.973 347.498C253.082 347.781 253.241 348.007 253.452 348.175C253.665 348.342 253.93 348.425 254.245 348.425ZM259.937 349.102C259.464 349.102 259.056 348.998 258.713 348.789C258.372 348.578 258.109 348.284 257.924 347.907C257.74 347.528 257.649 347.087 257.649 346.584C257.649 346.081 257.74 345.638 257.924 345.254C258.109 344.869 258.367 344.568 258.697 344.353C259.029 344.136 259.417 344.027 259.86 344.027C260.116 344.027 260.369 344.07 260.618 344.155C260.867 344.24 261.094 344.379 261.299 344.57C261.503 344.76 261.666 345.011 261.788 345.325C261.909 345.638 261.97 346.023 261.97 346.482V346.801H258.186V346.149H261.203C261.203 345.872 261.147 345.625 261.036 345.408C260.928 345.19 260.772 345.019 260.57 344.893C260.37 344.767 260.133 344.705 259.86 344.705C259.56 344.705 259.3 344.779 259.081 344.928C258.863 345.075 258.696 345.267 258.579 345.504C258.462 345.74 258.403 345.994 258.403 346.264V346.699C258.403 347.07 258.467 347.384 258.595 347.642C258.725 347.897 258.905 348.092 259.135 348.227C259.365 348.359 259.632 348.425 259.937 348.425C260.135 348.425 260.314 348.397 260.474 348.342C260.636 348.284 260.775 348.199 260.893 348.086C261.01 347.971 261.1 347.828 261.164 347.658L261.893 347.862C261.816 348.109 261.687 348.327 261.506 348.514C261.325 348.7 261.101 348.844 260.835 348.949C260.569 349.051 260.269 349.102 259.937 349.102ZM263.117 349V344.091H263.846V344.832H263.897C263.986 344.589 264.148 344.392 264.383 344.241C264.617 344.09 264.881 344.014 265.175 344.014C265.231 344.014 265.3 344.015 265.383 344.017C265.466 344.02 265.529 344.023 265.572 344.027V344.794C265.546 344.788 265.487 344.778 265.396 344.765C265.306 344.75 265.212 344.743 265.111 344.743C264.873 344.743 264.66 344.793 264.472 344.893C264.287 344.991 264.14 345.127 264.031 345.302C263.925 345.475 263.871 345.672 263.871 345.893V349H263.117Z" fill="#1A5FB5"/>
<path d="M196.435 365.158V364.455H201.344V365.158H199.286V371H198.493V365.158H196.435ZM202.567 371V364.455H204.779C205.29 364.455 205.71 364.542 206.038 364.717C206.366 364.889 206.609 365.127 206.767 365.429C206.924 365.732 207.003 366.076 207.003 366.462C207.003 366.847 206.924 367.189 206.767 367.488C206.609 367.786 206.367 368.02 206.041 368.191C205.715 368.359 205.299 368.443 204.791 368.443H203.002V367.727H204.766C205.115 367.727 205.397 367.676 205.61 367.574C205.825 367.472 205.98 367.327 206.076 367.139C206.174 366.95 206.223 366.724 206.223 366.462C206.223 366.2 206.174 365.971 206.076 365.775C205.978 365.578 205.822 365.427 205.606 365.321C205.391 365.212 205.107 365.158 204.753 365.158H203.36V371H202.567ZM205.648 368.06L207.259 371H206.338L204.753 368.06H205.648ZM208.324 371V364.455H209.116V367.702H209.193L212.134 364.455H213.169L210.42 367.408L213.169 371H212.21L209.935 367.957L209.116 368.878V371H208.324ZM215.93 367.376V368.079H213.066V367.376H215.93ZM216.936 371V370.425L219.097 368.06C219.35 367.783 219.559 367.542 219.723 367.337C219.887 367.131 220.009 366.937 220.088 366.756C220.169 366.572 220.209 366.381 220.209 366.18C220.209 365.95 220.154 365.751 220.043 365.583C219.934 365.414 219.785 365.284 219.595 365.193C219.406 365.101 219.193 365.055 218.956 365.055C218.705 365.055 218.485 365.108 218.298 365.212C218.112 365.314 217.969 365.458 217.866 365.643C217.766 365.829 217.716 366.046 217.716 366.295H216.962C216.962 365.912 217.05 365.575 217.227 365.286C217.404 364.996 217.645 364.77 217.949 364.608C218.256 364.446 218.6 364.365 218.982 364.365C219.365 364.365 219.705 364.446 220.001 364.608C220.297 364.77 220.53 364.988 220.698 365.263C220.866 365.538 220.951 365.844 220.951 366.18C220.951 366.421 220.907 366.657 220.82 366.887C220.734 367.115 220.585 367.369 220.372 367.651C220.161 367.93 219.868 368.271 219.493 368.673L218.023 370.246V370.297H221.066V371H216.936ZM222.386 371V370.425L224.546 368.06C224.8 367.783 225.008 367.542 225.172 367.337C225.337 367.131 225.458 366.937 225.537 366.756C225.618 366.572 225.658 366.381 225.658 366.18C225.658 365.95 225.603 365.751 225.492 365.583C225.383 365.414 225.234 365.284 225.045 365.193C224.855 365.101 224.642 365.055 224.405 365.055C224.154 365.055 223.935 365.108 223.747 365.212C223.562 365.314 223.418 365.458 223.316 365.643C223.215 365.829 223.165 366.046 223.165 366.295H222.411C222.411 365.912 222.5 365.575 222.676 365.286C222.853 364.996 223.094 364.77 223.399 364.608C223.706 364.446 224.05 364.365 224.431 364.365C224.815 364.365 225.154 364.446 225.451 364.608C225.747 364.77 225.979 364.988 226.147 365.263C226.316 365.538 226.4 365.844 226.4 366.18C226.4 366.421 226.356 366.657 226.269 366.887C226.184 367.115 226.034 367.369 225.821 367.651C225.61 367.93 225.317 368.271 224.942 368.673L223.472 370.246V370.297H226.515V371H222.386ZM227.541 369.658V369.006L230.417 364.455H230.89V365.464H230.571L228.397 368.903V368.955H232.271V369.658H227.541ZM230.622 371V369.46V369.156V364.455H231.376V371H230.622ZM235.682 364.455V371H234.889V365.286H234.851L233.253 366.347V365.541L234.889 364.455H235.682ZM241.949 369.134C241.691 369.134 241.456 369.071 241.243 368.945C241.03 368.817 240.859 368.647 240.732 368.434C240.606 368.221 240.543 367.985 240.543 367.727C240.543 367.467 240.606 367.232 240.732 367.021C240.859 366.808 241.03 366.638 241.243 366.513C241.456 366.385 241.691 366.321 241.949 366.321C242.209 366.321 242.445 366.385 242.656 366.513C242.869 366.638 243.038 366.808 243.164 367.021C243.292 367.232 243.355 367.467 243.355 367.727C243.355 367.985 243.292 368.221 243.164 368.434C243.038 368.647 242.869 368.817 242.656 368.945C242.445 369.071 242.209 369.134 241.949 369.134ZM249.901 371.089C249.479 371.089 249.103 371.017 248.773 370.872C248.445 370.727 248.184 370.526 247.99 370.268C247.798 370.008 247.694 369.707 247.676 369.364H248.482C248.499 369.575 248.571 369.757 248.699 369.91C248.827 370.061 248.994 370.179 249.201 370.262C249.408 370.345 249.637 370.386 249.888 370.386C250.169 370.386 250.419 370.337 250.636 370.239C250.853 370.141 251.024 370.005 251.147 369.83C251.271 369.656 251.333 369.453 251.333 369.223C251.333 368.982 251.273 368.77 251.154 368.587C251.034 368.402 250.86 368.257 250.63 368.152C250.4 368.048 250.118 367.996 249.786 367.996H249.262V367.293H249.786C250.046 367.293 250.274 367.246 250.47 367.152C250.668 367.058 250.822 366.926 250.933 366.756C251.046 366.585 251.103 366.385 251.103 366.155C251.103 365.933 251.054 365.74 250.956 365.576C250.858 365.412 250.719 365.284 250.54 365.193C250.363 365.101 250.154 365.055 249.914 365.055C249.688 365.055 249.475 365.097 249.275 365.18C249.076 365.261 248.914 365.379 248.789 365.535C248.663 365.688 248.595 365.874 248.584 366.091H247.817C247.83 365.748 247.933 365.447 248.127 365.19C248.321 364.93 248.575 364.727 248.888 364.582C249.203 364.437 249.549 364.365 249.926 364.365C250.331 364.365 250.679 364.447 250.968 364.611C251.258 364.773 251.481 364.987 251.636 365.254C251.792 365.52 251.87 365.808 251.87 366.116C251.87 366.485 251.773 366.799 251.579 367.059C251.387 367.319 251.126 367.499 250.796 367.599V367.651C251.209 367.719 251.532 367.895 251.764 368.178C251.996 368.459 252.113 368.808 252.113 369.223C252.113 369.579 252.016 369.898 251.822 370.182C251.63 370.463 251.368 370.685 251.036 370.847C250.703 371.009 250.325 371.089 249.901 371.089ZM253.78 371.051C253.622 371.051 253.487 370.995 253.374 370.882C253.261 370.769 253.205 370.634 253.205 370.476C253.205 370.318 253.261 370.183 253.374 370.07C253.487 369.957 253.622 369.901 253.78 369.901C253.938 369.901 254.073 369.957 254.186 370.07C254.299 370.183 254.355 370.318 254.355 370.476C254.355 370.58 254.329 370.676 254.275 370.763C254.224 370.851 254.155 370.921 254.068 370.974C253.983 371.026 253.887 371.051 253.78 371.051ZM255.696 371V370.425L257.857 368.06C258.11 367.783 258.319 367.542 258.483 367.337C258.647 367.131 258.769 366.937 258.847 366.756C258.928 366.572 258.969 366.381 258.969 366.18C258.969 365.95 258.913 365.751 258.803 365.583C258.694 365.414 258.545 365.284 258.355 365.193C258.166 365.101 257.953 365.055 257.716 365.055C257.465 365.055 257.245 365.108 257.058 365.212C256.872 365.314 256.728 365.458 256.626 365.643C256.526 365.829 256.476 366.046 256.476 366.295H255.722C255.722 365.912 255.81 365.575 255.987 365.286C256.164 364.996 256.405 364.77 256.709 364.608C257.016 364.446 257.36 364.365 257.742 364.365C258.125 364.365 258.465 364.446 258.761 364.608C259.057 364.77 259.29 364.988 259.458 365.263C259.626 365.538 259.71 365.844 259.71 366.18C259.71 366.421 259.667 366.657 259.579 366.887C259.494 367.115 259.345 367.369 259.132 367.651C258.921 367.93 258.628 368.271 258.253 368.673L256.783 370.246V370.297H259.825V371H255.696ZM264.392 369.21L264.38 368.277H264.533L266.681 366.091H267.614L265.326 368.405H265.262L264.392 369.21ZM263.689 371V364.455H264.444V371H263.689ZM266.809 371L264.891 368.571L265.428 368.047L267.767 371H266.809ZM268.585 371V366.091H269.314V366.858H269.377C269.48 366.596 269.645 366.392 269.873 366.248C270.101 366.1 270.375 366.027 270.694 366.027C271.018 366.027 271.288 366.1 271.503 366.248C271.72 366.392 271.89 366.596 272.011 366.858H272.062C272.188 366.604 272.376 366.403 272.628 366.254C272.879 366.103 273.181 366.027 273.532 366.027C273.971 366.027 274.33 366.164 274.609 366.439C274.888 366.712 275.028 367.137 275.028 367.714V371H274.274V367.714C274.274 367.352 274.175 367.093 273.977 366.938C273.778 366.782 273.545 366.705 273.277 366.705C272.931 366.705 272.664 366.809 272.474 367.018C272.285 367.224 272.19 367.487 272.19 367.804V371H271.423V367.638C271.423 367.359 271.332 367.134 271.151 366.963C270.97 366.791 270.737 366.705 270.451 366.705C270.255 366.705 270.072 366.757 269.902 366.861C269.733 366.966 269.597 367.11 269.493 367.296C269.39 367.479 269.339 367.691 269.339 367.932V371H268.585Z" fill="#2F80ED"/>
<path d="M283.094 389H188.224C186.996 389 186 391.628 186 394.869V410.519C186 413.76 186.996 416.387 188.224 416.387H283.094C284.322 416.387 285.318 413.76 285.318 410.519V394.869C285.318 391.628 284.322 389 283.094 389Z" fill="#2F80ED"/>
<path d="M221.497 406H220.666L223.069 399.455H223.887L226.291 406H225.46L223.504 400.49H223.453L221.497 406ZM221.803 403.443H225.153V404.146H221.803V403.443ZM229.202 406.102C228.742 406.102 228.346 405.994 228.013 405.776C227.681 405.559 227.425 405.26 227.246 404.878C227.067 404.497 226.978 404.061 226.978 403.571C226.978 403.072 227.069 402.632 227.253 402.251C227.438 401.868 227.696 401.568 228.026 401.353C228.358 401.136 228.746 401.027 229.189 401.027C229.535 401.027 229.846 401.091 230.123 401.219C230.4 401.347 230.627 401.526 230.803 401.756C230.98 401.986 231.09 402.254 231.133 402.561H230.378C230.321 402.337 230.193 402.139 229.995 401.967C229.799 401.792 229.535 401.705 229.202 401.705C228.908 401.705 228.65 401.781 228.429 401.935C228.209 402.086 228.038 402.3 227.914 402.577C227.793 402.852 227.732 403.175 227.732 403.545C227.732 403.925 227.792 404.255 227.911 404.536C228.032 404.817 228.203 405.036 228.422 405.191C228.644 405.347 228.904 405.425 229.202 405.425C229.398 405.425 229.576 405.391 229.736 405.322C229.896 405.254 230.031 405.156 230.142 405.028C230.253 404.901 230.331 404.747 230.378 404.568H231.133C231.09 404.858 230.985 405.119 230.816 405.351C230.65 405.581 230.43 405.765 230.155 405.901C229.882 406.035 229.564 406.102 229.202 406.102ZM234.23 406.102C233.769 406.102 233.373 405.994 233.041 405.776C232.708 405.559 232.453 405.26 232.274 404.878C232.095 404.497 232.005 404.061 232.005 403.571C232.005 403.072 232.097 402.632 232.28 402.251C232.465 401.868 232.723 401.568 233.053 401.353C233.386 401.136 233.774 401.027 234.217 401.027C234.562 401.027 234.873 401.091 235.15 401.219C235.427 401.347 235.654 401.526 235.831 401.756C236.008 401.986 236.117 402.254 236.16 402.561H235.406C235.348 402.337 235.22 402.139 235.022 401.967C234.826 401.792 234.562 401.705 234.23 401.705C233.936 401.705 233.678 401.781 233.456 401.935C233.237 402.086 233.065 402.3 232.942 402.577C232.82 402.852 232.759 403.175 232.759 403.545C232.759 403.925 232.819 404.255 232.938 404.536C233.06 404.817 233.23 405.036 233.45 405.191C233.671 405.347 233.931 405.425 234.23 405.425C234.426 405.425 234.604 405.391 234.763 405.322C234.923 405.254 235.058 405.156 235.169 405.028C235.28 404.901 235.359 404.747 235.406 404.568H236.16C236.117 404.858 236.012 405.119 235.844 405.351C235.677 405.581 235.457 405.765 235.182 405.901C234.909 406.035 234.592 406.102 234.23 406.102ZM239.321 406.102C238.848 406.102 238.44 405.998 238.097 405.789C237.756 405.578 237.493 405.284 237.307 404.907C237.124 404.528 237.032 404.087 237.032 403.584C237.032 403.081 237.124 402.638 237.307 402.254C237.493 401.869 237.751 401.568 238.081 401.353C238.413 401.136 238.801 401.027 239.244 401.027C239.5 401.027 239.752 401.07 240.002 401.155C240.251 401.24 240.478 401.379 240.682 401.57C240.887 401.76 241.05 402.011 241.171 402.325C241.293 402.638 241.354 403.023 241.354 403.482V403.801H237.569V403.149H240.586C240.586 402.872 240.531 402.625 240.42 402.408C240.312 402.19 240.156 402.019 239.954 401.893C239.753 401.767 239.517 401.705 239.244 401.705C238.944 401.705 238.684 401.779 238.464 401.928C238.247 402.075 238.08 402.267 237.963 402.504C237.845 402.74 237.787 402.994 237.787 403.264V403.699C237.787 404.07 237.851 404.384 237.979 404.642C238.108 404.897 238.289 405.092 238.519 405.227C238.749 405.359 239.016 405.425 239.321 405.425C239.519 405.425 239.698 405.397 239.858 405.342C240.02 405.284 240.159 405.199 240.276 405.086C240.394 404.971 240.484 404.828 240.548 404.658L241.277 404.862C241.2 405.109 241.071 405.327 240.89 405.514C240.709 405.7 240.485 405.844 240.219 405.949C239.953 406.051 239.653 406.102 239.321 406.102ZM242.501 407.841V401.091H243.23V401.871H243.319C243.374 401.786 243.451 401.677 243.549 401.545C243.649 401.411 243.792 401.291 243.977 401.187C244.165 401.08 244.419 401.027 244.738 401.027C245.151 401.027 245.516 401.13 245.831 401.337C246.146 401.544 246.393 401.837 246.569 402.216C246.746 402.595 246.835 403.043 246.835 403.558C246.835 404.078 246.746 404.529 246.569 404.91C246.393 405.289 246.148 405.583 245.834 405.792C245.521 405.999 245.16 406.102 244.751 406.102C244.436 406.102 244.183 406.05 243.993 405.946C243.804 405.839 243.658 405.719 243.556 405.585C243.453 405.448 243.374 405.335 243.319 405.246H243.255V407.841H242.501ZM243.242 403.545C243.242 403.916 243.297 404.243 243.405 404.527C243.514 404.808 243.673 405.028 243.882 405.188C244.09 405.346 244.346 405.425 244.649 405.425C244.964 405.425 245.227 405.342 245.438 405.175C245.651 405.007 245.811 404.781 245.917 404.498C246.026 404.212 246.08 403.895 246.08 403.545C246.08 403.2 246.027 402.889 245.921 402.612C245.816 402.333 245.657 402.113 245.444 401.951C245.233 401.787 244.968 401.705 244.649 401.705C244.342 401.705 244.084 401.782 243.875 401.938C243.666 402.091 243.509 402.306 243.402 402.583C243.296 402.858 243.242 403.179 243.242 403.545ZM250.12 401.091V401.73H247.576V401.091H250.12ZM248.318 399.915H249.072V404.594C249.072 404.807 249.103 404.967 249.165 405.073C249.229 405.178 249.309 405.248 249.407 405.284C249.508 405.318 249.613 405.335 249.724 405.335C249.807 405.335 249.875 405.331 249.928 405.322C249.982 405.312 250.024 405.303 250.056 405.297L250.21 405.974C250.159 405.994 250.087 406.013 249.996 406.032C249.904 406.053 249.788 406.064 249.647 406.064C249.434 406.064 249.225 406.018 249.021 405.926C248.818 405.835 248.65 405.695 248.516 405.508C248.384 405.32 248.318 405.084 248.318 404.798V399.915Z" fill="white"/>
<path d="M90.0923 149H5.90769C2.64496 149 0 154.444 0 161.16V212.84C0 219.556 2.64496 225 5.90769 225H90.0923C93.355 225 96 219.556 96 212.84V161.16C96 154.444 93.355 149 90.0923 149Z" fill="#2F80ED"/>
<path d="M38.541 165.208C38.4984 164.848 38.3256 164.569 38.0226 164.37C37.7195 164.171 37.3478 164.072 36.9075 164.072C36.5855 164.072 36.3038 164.124 36.0623 164.228C35.8232 164.332 35.6362 164.475 35.5012 164.658C35.3687 164.84 35.3024 165.047 35.3024 165.279C35.3024 165.473 35.3486 165.64 35.4409 165.78C35.5356 165.917 35.6563 166.032 35.8031 166.124C35.9499 166.214 36.1038 166.289 36.2647 166.348C36.4257 166.405 36.5737 166.451 36.7086 166.486L37.4473 166.685C37.6367 166.735 37.8474 166.804 38.0794 166.891C38.3137 166.979 38.5375 167.098 38.7505 167.25C38.966 167.399 39.1435 167.591 39.2832 167.825C39.4229 168.06 39.4927 168.347 39.4927 168.688C39.4927 169.081 39.3897 169.436 39.1838 169.754C38.9802 170.071 38.6819 170.323 38.2889 170.51C37.8983 170.697 37.4236 170.79 36.8649 170.79C36.3441 170.79 35.8931 170.706 35.5119 170.538C35.1331 170.37 34.8348 170.136 34.617 169.835C34.4016 169.535 34.2797 169.185 34.2512 168.788H35.1603C35.184 169.062 35.2763 169.289 35.4373 169.469C35.6007 169.647 35.8066 169.78 36.0552 169.867C36.3062 169.952 36.5761 169.995 36.8649 169.995C37.2011 169.995 37.5029 169.941 37.7704 169.832C38.0379 169.72 38.2498 169.566 38.4061 169.37C38.5623 169.171 38.6405 168.939 38.6405 168.674C38.6405 168.432 38.573 168.236 38.438 168.084C38.3031 167.933 38.1255 167.81 37.9054 167.715C37.6852 167.62 37.4473 167.538 37.1916 167.467L36.2967 167.211C35.7285 167.048 35.2787 166.814 34.9473 166.511C34.6158 166.208 34.4501 165.812 34.4501 165.322C34.4501 164.914 34.5602 164.559 34.7804 164.256C35.0029 163.951 35.3012 163.714 35.6753 163.546C36.0517 163.376 36.4719 163.29 36.9359 163.29C37.4047 163.29 37.8213 163.374 38.1859 163.543C38.5505 163.708 38.8393 163.936 39.0524 164.224C39.2678 164.513 39.3815 164.841 39.3933 165.208H38.541ZM40.8271 170.663V165.208H41.6367V166.06H41.7077C41.8214 165.769 42.0049 165.543 42.2582 165.382C42.5115 165.219 42.8157 165.137 43.1708 165.137C43.5307 165.137 43.8301 165.219 44.0693 165.382C44.3107 165.543 44.4989 165.769 44.6339 166.06H44.6907C44.8304 165.779 45.0399 165.555 45.3193 165.389C45.5986 165.221 45.9336 165.137 46.3242 165.137C46.8119 165.137 47.2108 165.29 47.521 165.595C47.8311 165.898 47.9862 166.37 47.9862 167.012V170.663H47.1481V167.012C47.1481 166.61 47.038 166.322 46.8178 166.149C46.5977 165.976 46.3384 165.89 46.0401 165.89C45.6566 165.89 45.3595 166.006 45.1488 166.238C44.9381 166.468 44.8327 166.759 44.8327 167.111V170.663H43.9805V166.927C43.9805 166.617 43.8799 166.367 43.6786 166.178C43.4774 165.986 43.2182 165.89 42.9009 165.89C42.6831 165.89 42.4795 165.948 42.2901 166.064C42.1031 166.18 41.9516 166.341 41.8356 166.547C41.722 166.75 41.6651 166.986 41.6651 167.254V170.663H40.8271ZM51.1236 170.79C50.7779 170.79 50.4643 170.725 50.1825 170.595C49.9008 170.463 49.6771 170.272 49.5114 170.023C49.3457 169.772 49.2628 169.469 49.2628 169.114C49.2628 168.802 49.3243 168.548 49.4474 168.354C49.5706 168.158 49.7351 168.004 49.9411 167.893C50.147 167.781 50.3743 167.699 50.6229 167.644C50.8738 167.587 51.126 167.542 51.3793 167.509C51.7107 167.467 51.9794 167.435 52.1854 167.413C52.3937 167.39 52.5452 167.351 52.6399 167.296C52.737 167.242 52.7855 167.147 52.7855 167.012V166.984C52.7855 166.633 52.6896 166.361 52.4979 166.167C52.3085 165.973 52.0208 165.876 51.6349 165.876C51.2349 165.876 50.9212 165.963 50.6939 166.138C50.4666 166.314 50.3068 166.501 50.2145 166.7L49.419 166.415C49.5611 166.084 49.7505 165.826 49.9872 165.641C50.2263 165.454 50.4867 165.324 50.7685 165.251C51.0526 165.175 51.3319 165.137 51.6065 165.137C51.7817 165.137 51.983 165.158 52.2102 165.201C52.4399 165.241 52.6612 165.325 52.8743 165.453C53.0897 165.581 53.2685 165.774 53.4105 166.032C53.5526 166.29 53.6236 166.636 53.6236 167.069V170.663H52.7855V169.924H52.7429C52.6861 170.042 52.5914 170.169 52.4588 170.304C52.3262 170.439 52.1499 170.554 51.9297 170.648C51.7095 170.743 51.4408 170.79 51.1236 170.79ZM51.2514 170.038C51.5829 170.038 51.8622 169.972 52.0895 169.842C52.3191 169.712 52.492 169.544 52.608 169.338C52.7263 169.132 52.7855 168.915 52.7855 168.688V167.921C52.75 167.964 52.6719 168.003 52.5511 168.038C52.4328 168.071 52.2955 168.101 52.1392 168.127C51.9853 168.151 51.835 168.172 51.6882 168.191C51.5438 168.208 51.4266 168.222 51.3367 168.234C51.1189 168.262 50.9153 168.308 50.7259 168.372C50.5388 168.434 50.3873 168.527 50.2713 168.653C50.1577 168.776 50.1009 168.944 50.1009 169.157C50.1009 169.448 50.2086 169.668 50.424 169.817C50.6418 169.964 50.9176 170.038 51.2514 170.038ZM55.1532 170.663V165.208H55.9629V166.032H56.0197C56.1191 165.762 56.2991 165.543 56.5595 165.375C56.8199 165.207 57.1135 165.123 57.4402 165.123C57.5017 165.123 57.5787 165.124 57.671 165.126C57.7633 165.129 57.8332 165.132 57.8805 165.137V165.989C57.8521 165.982 57.787 165.972 57.6852 165.957C57.5858 165.941 57.4804 165.932 57.3691 165.932C57.104 165.932 56.8673 165.988 56.6589 166.099C56.453 166.208 56.2896 166.36 56.1689 166.554C56.0505 166.746 55.9913 166.965 55.9913 167.211V170.663H55.1532ZM61.5879 165.208V165.918H58.7612V165.208H61.5879ZM59.5851 163.901H60.4231V169.1C60.4231 169.337 60.4575 169.514 60.5261 169.633C60.5971 169.749 60.6871 169.827 60.796 169.867C60.9073 169.905 61.0245 169.924 61.1476 169.924C61.2399 169.924 61.3156 169.919 61.3748 169.91C61.434 169.898 61.4814 169.888 61.5169 169.881L61.6873 170.634C61.6305 170.655 61.5512 170.677 61.4494 170.698C61.3476 170.722 61.2186 170.734 61.0623 170.734C60.8256 170.734 60.5936 170.683 60.3663 170.581C60.1414 170.479 59.9544 170.324 59.8052 170.116C59.6584 169.907 59.5851 169.645 59.5851 169.327V163.901ZM30.2163 182.663H27.972V175.39H30.3157C31.0212 175.39 31.6249 175.535 32.1268 175.827C32.6287 176.115 33.0134 176.531 33.2809 177.073C33.5484 177.613 33.6822 178.259 33.6822 179.012C33.6822 179.77 33.5472 180.422 33.2774 180.969C33.0075 181.513 32.6145 181.932 32.0984 182.226C31.5823 182.517 30.9549 182.663 30.2163 182.663ZM28.8526 181.881H30.1595C30.7608 181.881 31.2591 181.765 31.6545 181.533C32.0498 181.301 32.3446 180.971 32.5387 180.543C32.7328 180.114 32.8299 179.604 32.8299 179.012C32.8299 178.425 32.734 177.919 32.5423 177.496C32.3505 177.07 32.064 176.743 31.6829 176.516C31.3017 176.286 30.8271 176.171 30.2589 176.171H28.8526V181.881ZM35.0458 182.663V177.208H35.8839V182.663H35.0458ZM35.472 176.299C35.3086 176.299 35.1677 176.243 35.0494 176.132C34.9334 176.021 34.8754 175.887 34.8754 175.731C34.8754 175.575 34.9334 175.441 35.0494 175.33C35.1677 175.218 35.3086 175.163 35.472 175.163C35.6353 175.163 35.775 175.218 35.891 175.33C36.0094 175.441 36.0685 175.575 36.0685 175.731C36.0685 175.887 36.0094 176.021 35.891 176.132C35.775 176.243 35.6353 176.299 35.472 176.299ZM41.2825 178.43L40.5297 178.643C40.4823 178.517 40.4125 178.395 40.3201 178.277C40.2302 178.156 40.1071 178.057 39.9508 177.979C39.7946 177.901 39.5945 177.861 39.3507 177.861C39.0169 177.861 38.7387 177.938 38.5162 178.092C38.296 178.244 38.1859 178.437 38.1859 178.671C38.1859 178.879 38.2617 179.044 38.4132 179.165C38.5647 179.285 38.8014 179.386 39.1234 179.467L39.9331 179.665C40.4208 179.784 40.7842 179.965 41.0233 180.209C41.2624 180.45 41.3819 180.762 41.3819 181.143C41.3819 181.455 41.292 181.735 41.112 181.981C40.9345 182.227 40.6859 182.421 40.3663 182.563C40.0467 182.705 39.675 182.776 39.2512 182.776C38.6949 182.776 38.2344 182.655 37.8699 182.414C37.5053 182.173 37.2744 181.82 37.1774 181.356L37.9728 181.157C38.0486 181.45 38.1918 181.671 38.4025 181.817C38.6156 181.964 38.8938 182.038 39.237 182.038C39.6277 182.038 39.9378 181.955 40.1674 181.789C40.3995 181.621 40.5155 181.42 40.5155 181.185C40.5155 180.996 40.4492 180.837 40.3166 180.709C40.184 180.579 39.9804 180.482 39.7058 180.418L38.7967 180.205C38.2972 180.087 37.9302 179.903 37.6959 179.655C37.4638 179.404 37.3478 179.09 37.3478 178.714C37.3478 178.406 37.4343 178.134 37.6071 177.897C37.7823 177.66 38.0202 177.474 38.3209 177.339C38.6239 177.205 38.9672 177.137 39.3507 177.137C39.8905 177.137 40.3142 177.255 40.622 177.492C40.9321 177.729 41.1523 178.041 41.2825 178.43ZM42.6435 184.708V177.208H43.4531V178.075H43.5526C43.6141 177.98 43.6993 177.859 43.8082 177.712C43.9195 177.563 44.0781 177.431 44.2841 177.315C44.4924 177.196 44.7742 177.137 45.1293 177.137C45.5885 177.137 45.9934 177.252 46.3438 177.481C46.6941 177.711 46.9676 178.037 47.1641 178.458C47.3606 178.879 47.4588 179.377 47.4588 179.95C47.4588 180.527 47.3606 181.028 47.1641 181.452C46.9676 181.873 46.6953 182.2 46.3473 182.432C45.9993 182.661 45.598 182.776 45.1435 182.776C44.7931 182.776 44.5126 182.718 44.3019 182.602C44.0912 182.484 43.929 182.35 43.8153 182.201C43.7017 182.049 43.6141 181.924 43.5526 181.825H43.4815V184.708H42.6435ZM43.4673 179.935C43.4673 180.347 43.5277 180.711 43.6484 181.026C43.7692 181.338 43.9456 181.583 44.1776 181.761C44.4096 181.936 44.6937 182.023 45.0298 182.023C45.3802 182.023 45.6726 181.931 45.907 181.746C46.1437 181.559 46.3213 181.308 46.4396 180.994C46.5604 180.676 46.6207 180.324 46.6207 179.935C46.6207 179.552 46.5616 179.206 46.4432 178.898C46.3272 178.588 46.1508 178.343 45.9141 178.163C45.6797 177.981 45.3849 177.89 45.0298 177.89C44.6889 177.89 44.4025 177.976 44.1705 178.149C43.9385 178.32 43.7633 178.559 43.6449 178.866C43.5265 179.172 43.4673 179.528 43.4673 179.935ZM50.3423 182.79C49.9967 182.79 49.683 182.725 49.4013 182.595C49.1196 182.463 48.8958 182.272 48.7301 182.023C48.5644 181.772 48.4815 181.469 48.4815 181.114C48.4815 180.802 48.5431 180.548 48.6662 180.354C48.7893 180.158 48.9538 180.004 49.1598 179.893C49.3658 179.781 49.593 179.699 49.8416 179.644C50.0926 179.587 50.3447 179.542 50.598 179.509C50.9295 179.467 51.1982 179.435 51.4041 179.413C51.6125 179.39 51.764 179.351 51.8587 179.296C51.9557 179.242 52.0043 179.147 52.0043 179.012V178.984C52.0043 178.633 51.9084 178.361 51.7166 178.167C51.5272 177.973 51.2396 177.876 50.8537 177.876C50.4536 177.876 50.1399 177.963 49.9126 178.138C49.6854 178.314 49.5256 178.501 49.4332 178.7L48.6378 178.415C48.7798 178.084 48.9692 177.826 49.206 177.641C49.4451 177.454 49.7055 177.324 49.9872 177.251C50.2713 177.175 50.5507 177.137 50.8253 177.137C51.0005 177.137 51.2017 177.158 51.429 177.201C51.6586 177.241 51.88 177.325 52.093 177.453C52.3085 177.581 52.4872 177.774 52.6293 178.032C52.7713 178.29 52.8423 178.636 52.8423 179.069V182.663H52.0043V181.924H51.9617C51.9048 182.042 51.8101 182.169 51.6776 182.304C51.545 182.439 51.3686 182.554 51.1484 182.648C50.9283 182.743 50.6596 182.79 50.3423 182.79ZM50.4702 182.038C50.8016 182.038 51.081 181.972 51.3082 181.842C51.5379 181.712 51.7107 181.544 51.8267 181.338C51.9451 181.132 52.0043 180.915 52.0043 180.688V179.921C51.9688 179.964 51.8906 180.003 51.7699 180.038C51.6515 180.071 51.5142 180.101 51.358 180.127C51.2041 180.151 51.0537 180.172 50.907 180.191C50.7626 180.208 50.6454 180.222 50.5554 180.234C50.3376 180.262 50.134 180.308 49.9446 180.372C49.7576 180.434 49.6061 180.527 49.4901 180.653C49.3764 180.776 49.3196 180.944 49.3196 181.157C49.3196 181.448 49.4273 181.668 49.6428 181.817C49.8606 181.964 50.1364 182.038 50.4702 182.038ZM56.7441 177.208V177.918H53.9174V177.208H56.7441ZM54.7413 175.901H55.5794V181.1C55.5794 181.337 55.6137 181.514 55.6824 181.633C55.7534 181.749 55.8433 181.827 55.9522 181.867C56.0635 181.905 56.1807 181.924 56.3038 181.924C56.3961 181.924 56.4719 181.919 56.5311 181.91C56.5903 181.898 56.6376 181.888 56.6731 181.881L56.8436 182.634C56.7868 182.655 56.7075 182.677 56.6057 182.698C56.5039 182.722 56.3748 182.734 56.2186 182.734C55.9818 182.734 55.7498 182.683 55.5226 182.581C55.2977 182.479 55.1106 182.324 54.9615 182.116C54.8147 181.907 54.7413 181.645 54.7413 181.327V175.901ZM60.1621 182.776C59.6508 182.776 59.2104 182.655 58.8411 182.414C58.4718 182.173 58.1877 181.84 57.9888 181.416C57.79 180.992 57.6905 180.508 57.6905 179.964C57.6905 179.41 57.7923 178.921 57.9959 178.497C58.2019 178.071 58.4883 177.738 58.8553 177.499C59.2246 177.258 59.6555 177.137 60.1479 177.137C60.5314 177.137 60.8771 177.208 61.1848 177.35C61.4926 177.492 61.7447 177.691 61.9412 177.947C62.1377 178.202 62.2597 178.501 62.307 178.842H61.4689C61.405 178.593 61.263 178.373 61.0428 178.181C60.825 177.987 60.5314 177.89 60.1621 177.89C59.8354 177.89 59.549 177.975 59.3027 178.146C59.0589 178.314 58.8683 178.552 58.731 178.859C58.5961 179.165 58.5286 179.523 58.5286 179.935C58.5286 180.357 58.5949 180.724 58.7275 181.036C58.8624 181.349 59.0518 181.591 59.2956 181.764C59.5419 181.937 59.8307 182.023 60.1621 182.023C60.3799 182.023 60.5776 181.986 60.7552 181.91C60.9327 181.834 61.083 181.725 61.2061 181.583C61.3293 181.441 61.4169 181.271 61.4689 181.072H62.307C62.2597 181.394 62.1425 181.684 61.9554 181.942C61.7708 182.197 61.5258 182.401 61.2204 182.553C60.9173 182.702 60.5646 182.776 60.1621 182.776ZM64.3702 179.381V182.663H63.5321V175.39H64.3702V178.06H64.4412C64.5691 177.779 64.7608 177.555 65.0165 177.389C65.2746 177.221 65.6178 177.137 66.0463 177.137C66.418 177.137 66.7436 177.212 67.0229 177.361C67.3023 177.508 67.5189 177.734 67.6728 178.039C67.829 178.342 67.9071 178.728 67.9071 179.197V182.663H67.0691V179.254C67.0691 178.82 66.9566 178.485 66.7317 178.249C66.5092 178.009 66.2002 177.89 65.8049 177.89C65.5303 177.89 65.284 177.948 65.0662 178.064C64.8508 178.18 64.6803 178.349 64.5549 178.572C64.4318 178.794 64.3702 179.064 64.3702 179.381Z" fill="#A6D2F3"/>
<path d="M40.7931 200.919C40.7931 201.763 40.6407 202.492 40.336 203.106C40.0313 203.721 39.6134 204.195 39.0821 204.528C38.5509 204.862 37.9441 205.028 37.2618 205.028C36.5795 205.028 35.9727 204.862 35.4415 204.528C34.9102 204.195 34.4923 203.721 34.1876 203.106C33.8829 202.492 33.7306 201.763 33.7306 200.919C33.7306 200.075 33.8829 199.346 34.1876 198.731C34.4923 198.117 34.9102 197.643 35.4415 197.31C35.9727 196.976 36.5795 196.81 37.2618 196.81C37.9441 196.81 38.5509 196.976 39.0821 197.31C39.6134 197.643 40.0313 198.117 40.336 198.731C40.6407 199.346 40.7931 200.075 40.7931 200.919ZM39.8556 200.919C39.8556 200.226 39.7397 199.642 39.5079 199.165C39.2787 198.688 38.9675 198.328 38.5743 198.083C38.1837 197.838 37.7462 197.716 37.2618 197.716C36.7774 197.716 36.3386 197.838 35.9454 198.083C35.5548 198.328 35.2436 198.688 35.0118 199.165C34.7826 199.642 34.6681 200.226 34.6681 200.919C34.6681 201.612 34.7826 202.196 35.0118 202.673C35.2436 203.149 35.5548 203.51 35.9454 203.755C36.3386 204 36.7774 204.122 37.2618 204.122C37.7462 204.122 38.1837 204 38.5743 203.755C38.9675 203.51 39.2787 203.149 39.5079 202.673C39.7397 202.196 39.8556 201.612 39.8556 200.919ZM42.297 204.919V198.919H43.1876V199.825H43.2501C43.3595 199.528 43.5574 199.287 43.8438 199.103C44.1303 198.918 44.4532 198.825 44.8126 198.825C44.8803 198.825 44.9649 198.826 45.0665 198.829C45.1681 198.832 45.2449 198.836 45.297 198.841V199.778C45.2657 199.771 45.1941 199.759 45.0821 199.743C44.9727 199.725 44.8569 199.716 44.7345 199.716C44.4428 199.716 44.1824 199.777 43.9532 199.899C43.7266 200.019 43.547 200.186 43.4141 200.399C43.2839 200.61 43.2188 200.851 43.2188 201.122V204.919H42.297ZM48.4727 205.044C47.9727 205.044 47.5313 204.918 47.1485 204.665C46.7657 204.41 46.4662 204.05 46.2501 203.587C46.0339 203.121 45.9259 202.57 45.9259 201.935C45.9259 201.304 46.0339 200.757 46.2501 200.294C46.4662 199.83 46.767 199.472 47.1524 199.22C47.5378 198.967 47.9832 198.841 48.4884 198.841C48.879 198.841 49.1876 198.906 49.4141 199.036C49.6433 199.164 49.8178 199.31 49.9376 199.474C50.06 199.635 50.155 199.768 50.2227 199.872H50.3009V196.919H51.2227V204.919H50.3321V203.997H50.2227C50.155 204.106 50.0587 204.244 49.9337 204.411C49.8087 204.575 49.6303 204.722 49.3985 204.853C49.1668 204.98 48.8582 205.044 48.4727 205.044ZM48.5977 204.216C48.9675 204.216 49.28 204.119 49.5352 203.927C49.7905 203.731 49.9845 203.462 50.1173 203.118C50.2501 202.772 50.3165 202.372 50.3165 201.919C50.3165 201.471 50.2514 201.079 50.1212 200.743C49.991 200.405 49.7983 200.142 49.5431 199.954C49.2878 199.764 48.9727 199.669 48.5977 199.669C48.2071 199.669 47.8816 199.769 47.6212 199.97C47.3634 200.168 47.1694 200.437 47.0391 200.778C46.9115 201.117 46.8477 201.497 46.8477 201.919C46.8477 202.346 46.9128 202.734 47.0431 203.083C47.1759 203.429 47.3712 203.705 47.629 203.911C47.8894 204.114 48.2123 204.216 48.5977 204.216ZM55.5548 205.044C54.9766 205.044 54.4779 204.916 54.0587 204.661C53.642 204.403 53.3204 204.044 53.0938 203.583C52.8699 203.119 52.7579 202.58 52.7579 201.966C52.7579 201.351 52.8699 200.81 53.0938 200.341C53.3204 199.869 53.6355 199.502 54.0391 199.239C54.4454 198.974 54.9194 198.841 55.461 198.841C55.7735 198.841 56.0821 198.893 56.3868 198.997C56.6915 199.101 56.9688 199.271 57.2188 199.505C57.4688 199.737 57.6681 200.044 57.8165 200.427C57.9649 200.81 58.0391 201.281 58.0391 201.841V202.231H53.4141V201.435H57.1016C57.1016 201.096 57.0339 200.794 56.8985 200.528C56.7657 200.263 56.5756 200.053 56.3282 199.899C56.0834 199.746 55.7944 199.669 55.461 199.669C55.0938 199.669 54.7761 199.76 54.5079 199.942C54.2423 200.122 54.0378 200.356 53.8946 200.646C53.7514 200.935 53.6798 201.244 53.6798 201.575V202.106C53.6798 202.56 53.7579 202.944 53.9141 203.259C54.073 203.571 54.2931 203.81 54.5743 203.974C54.8556 204.135 55.1824 204.216 55.5548 204.216C55.797 204.216 56.0157 204.182 56.211 204.114C56.4089 204.044 56.5795 203.94 56.7227 203.802C56.866 203.661 56.9766 203.487 57.0548 203.278L57.9454 203.528C57.8516 203.83 57.6941 204.096 57.4727 204.325C57.2514 204.552 56.9779 204.729 56.6524 204.856C56.3269 204.981 55.961 205.044 55.5548 205.044ZM59.4415 204.919V198.919H60.3321V199.825H60.3946C60.504 199.528 60.7019 199.287 60.9884 199.103C61.2748 198.918 61.5977 198.825 61.9571 198.825C62.0248 198.825 62.1095 198.826 62.211 198.829C62.3126 198.832 62.3894 198.836 62.4415 198.841V199.778C62.4102 199.771 62.3386 199.759 62.2266 199.743C62.1173 199.725 62.0014 199.716 61.879 199.716C61.5873 199.716 61.3269 199.777 61.0977 199.899C60.8712 200.019 60.6915 200.186 60.5587 200.399C60.4285 200.61 60.3634 200.851 60.3634 201.122V204.919H59.4415ZM27.1544 218.06C26.7742 218.06 26.4291 217.988 26.1192 217.845C25.8093 217.699 25.5632 217.489 25.3809 217.216C25.1987 216.94 25.1075 216.606 25.1075 216.216C25.1075 215.872 25.1752 215.593 25.3106 215.38C25.446 215.164 25.627 214.994 25.8536 214.872C26.0802 214.75 26.3302 214.659 26.6036 214.599C26.8796 214.536 27.157 214.487 27.4356 214.45C27.8002 214.403 28.0958 214.368 28.3224 214.345C28.5515 214.319 28.7182 214.276 28.8224 214.216C28.9291 214.156 28.9825 214.052 28.9825 213.903V213.872C28.9825 213.487 28.877 213.187 28.6661 212.974C28.4578 212.76 28.1414 212.653 27.7169 212.653C27.2768 212.653 26.9317 212.75 26.6817 212.942C26.4317 213.135 26.2559 213.341 26.1544 213.56L25.2794 213.247C25.4356 212.882 25.644 212.599 25.9044 212.396C26.1674 212.19 26.4539 212.047 26.7638 211.966C27.0763 211.882 27.3835 211.841 27.6856 211.841C27.8783 211.841 28.0997 211.864 28.3497 211.911C28.6023 211.955 28.8458 212.048 29.0802 212.188C29.3171 212.329 29.5138 212.541 29.67 212.825C29.8263 213.109 29.9044 213.489 29.9044 213.966V217.919H28.9825V217.106H28.9356C28.8731 217.237 28.769 217.376 28.6231 217.524C28.4773 217.673 28.2833 217.799 28.0411 217.903C27.7989 218.007 27.5033 218.06 27.1544 218.06ZM27.295 217.231C27.6596 217.231 27.9669 217.16 28.2169 217.017C28.4695 216.873 28.6596 216.688 28.7872 216.462C28.9174 216.235 28.9825 215.997 28.9825 215.747V214.903C28.9434 214.95 28.8575 214.993 28.7247 215.032C28.5945 215.069 28.4434 215.101 28.2716 215.13C28.1023 215.156 27.9369 215.179 27.7755 215.2C27.6166 215.218 27.4877 215.234 27.3888 215.247C27.1492 215.278 26.9252 215.329 26.7169 215.399C26.5112 215.467 26.3445 215.57 26.2169 215.708C26.0919 215.843 26.0294 216.028 26.0294 216.263C26.0294 216.583 26.1479 216.825 26.3849 216.989C26.6244 217.151 26.9278 217.231 27.295 217.231ZM35.837 213.263L35.0089 213.497C34.9568 213.359 34.88 213.225 34.7784 213.095C34.6794 212.962 34.544 212.853 34.3722 212.767C34.2003 212.681 33.9802 212.638 33.712 212.638C33.3448 212.638 33.0388 212.722 32.794 212.892C32.5518 213.058 32.4307 213.271 32.4307 213.528C32.4307 213.757 32.5141 213.938 32.6808 214.071C32.8474 214.204 33.1078 214.315 33.462 214.403L34.3526 214.622C34.8891 214.752 35.2888 214.951 35.5518 215.22C35.8149 215.485 35.9464 215.828 35.9464 216.247C35.9464 216.591 35.8474 216.898 35.6495 217.169C35.4542 217.44 35.1808 217.653 34.8292 217.81C34.4776 217.966 34.0688 218.044 33.6026 218.044C32.9906 218.044 32.4841 217.911 32.0831 217.646C31.6821 217.38 31.4281 216.992 31.3214 216.481L32.1964 216.263C32.2797 216.586 32.4373 216.828 32.669 216.989C32.9034 217.151 33.2094 217.231 33.587 217.231C34.0167 217.231 34.3578 217.14 34.6104 216.958C34.8656 216.773 34.9933 216.552 34.9933 216.294C34.9933 216.086 34.9203 215.911 34.7745 215.771C34.6287 215.627 34.4047 215.521 34.1026 215.45L33.1026 215.216C32.5531 215.086 32.1495 214.884 31.8917 214.61C31.6365 214.334 31.5089 213.989 31.5089 213.575C31.5089 213.237 31.6039 212.937 31.794 212.677C31.9867 212.416 32.2485 212.212 32.5792 212.063C32.9125 211.915 33.2901 211.841 33.712 211.841C34.3057 211.841 34.7719 211.971 35.1104 212.231C35.4516 212.492 35.6938 212.836 35.837 213.263ZM41.5841 213.263L40.7559 213.497C40.7039 213.359 40.627 213.225 40.5255 213.095C40.4265 212.962 40.2911 212.853 40.1192 212.767C39.9474 212.681 39.7273 212.638 39.4591 212.638C39.0919 212.638 38.7859 212.722 38.5411 212.892C38.2989 213.058 38.1778 213.271 38.1778 213.528C38.1778 213.757 38.2612 213.938 38.4278 214.071C38.5945 214.204 38.8549 214.315 39.2091 214.403L40.0997 214.622C40.6362 214.752 41.0359 214.951 41.2989 215.22C41.5619 215.485 41.6934 215.828 41.6934 216.247C41.6934 216.591 41.5945 216.898 41.3966 217.169C41.2013 217.44 40.9278 217.653 40.5763 217.81C40.2247 217.966 39.8158 218.044 39.3497 218.044C38.7377 218.044 38.2312 217.911 37.8302 217.646C37.4291 217.38 37.1752 216.992 37.0684 216.481L37.9434 216.263C38.0268 216.586 38.1843 216.828 38.4161 216.989C38.6505 217.151 38.9565 217.231 39.3341 217.231C39.7638 217.231 40.1049 217.14 40.3575 216.958C40.6127 216.773 40.7403 216.552 40.7403 216.294C40.7403 216.086 40.6674 215.911 40.5216 215.771C40.3757 215.627 40.1518 215.521 39.8497 215.45L38.8497 215.216C38.3002 215.086 37.8966 214.884 37.6388 214.61C37.3835 214.334 37.2559 213.989 37.2559 213.575C37.2559 213.237 37.351 212.937 37.5411 212.677C37.7338 212.416 37.9955 212.212 38.3263 212.063C38.6596 211.915 39.0372 211.841 39.4591 211.841C40.0528 211.841 40.519 211.971 40.8575 212.231C41.1987 212.492 41.4408 212.836 41.5841 213.263ZM43.0811 217.919V211.919H44.003V217.919H43.0811ZM43.5499 210.919C43.3702 210.919 43.2153 210.858 43.085 210.735C42.9574 210.613 42.8936 210.466 42.8936 210.294C42.8936 210.122 42.9574 209.975 43.085 209.853C43.2153 209.73 43.3702 209.669 43.5499 209.669C43.7296 209.669 43.8832 209.73 44.0108 209.853C44.141 209.975 44.2061 210.122 44.2061 210.294C44.2061 210.466 44.141 210.613 44.0108 210.735C43.8832 210.858 43.7296 210.919 43.5499 210.919ZM48.1134 220.294C47.6681 220.294 47.2852 220.237 46.9649 220.122C46.6446 220.01 46.3777 219.862 46.1641 219.677C45.9532 219.494 45.7852 219.299 45.6602 219.091L46.3946 218.575C46.478 218.685 46.5834 218.81 46.711 218.95C46.8386 219.093 47.0131 219.217 47.2345 219.321C47.4584 219.428 47.7514 219.481 48.1134 219.481C48.5977 219.481 48.9975 219.364 49.3126 219.13C49.6277 218.896 49.7852 218.528 49.7852 218.028V216.81H49.7071C49.6394 216.919 49.5431 217.054 49.4181 217.216C49.2957 217.375 49.1186 217.517 48.8868 217.642C48.6576 217.764 48.3477 217.825 47.9571 217.825C47.4727 217.825 47.0378 217.711 46.6524 217.481C46.2696 217.252 45.9662 216.919 45.7423 216.481C45.5209 216.044 45.4102 215.513 45.4102 214.888C45.4102 214.273 45.5183 213.738 45.7345 213.282C45.9506 212.824 46.2514 212.47 46.6368 212.22C47.0222 211.967 47.4675 211.841 47.9727 211.841C48.3634 211.841 48.6733 211.906 48.9024 212.036C49.1342 212.164 49.3113 212.31 49.4337 212.474C49.5587 212.635 49.655 212.768 49.7227 212.872H49.8165V211.919H50.7071V218.091C50.7071 218.606 50.5899 219.026 50.3556 219.349C50.1238 219.674 49.8113 219.912 49.4181 220.063C49.0274 220.217 48.5925 220.294 48.1134 220.294ZM48.0821 216.997C48.4519 216.997 48.7644 216.912 49.0196 216.743C49.2748 216.574 49.4688 216.33 49.6016 216.013C49.7345 215.695 49.8009 215.315 49.8009 214.872C49.8009 214.44 49.7358 214.058 49.6056 213.728C49.4753 213.397 49.2826 213.138 49.0274 212.95C48.7722 212.763 48.4571 212.669 48.0821 212.669C47.6915 212.669 47.366 212.768 47.1056 212.966C46.8477 213.164 46.6537 213.429 46.5235 213.763C46.3959 214.096 46.3321 214.466 46.3321 214.872C46.3321 215.289 46.3972 215.657 46.5274 215.978C46.6602 216.295 46.8556 216.545 47.1134 216.728C47.3738 216.907 47.6967 216.997 48.0821 216.997ZM53.3165 214.31V217.919H52.3946V211.919H53.2852V212.856H53.3634C53.504 212.552 53.7175 212.307 54.004 212.122C54.2904 211.935 54.6602 211.841 55.1134 211.841C55.5196 211.841 55.8751 211.924 56.1798 212.091C56.4845 212.255 56.7214 212.505 56.8907 212.841C57.06 213.174 57.1446 213.596 57.1446 214.106V217.919H56.2227V214.169C56.2227 213.698 56.1003 213.33 55.8556 213.067C55.6108 212.802 55.2748 212.669 54.8477 212.669C54.5535 212.669 54.2904 212.733 54.0587 212.86C53.8295 212.988 53.6485 213.174 53.5157 213.419C53.3829 213.664 53.3165 213.961 53.3165 214.31ZM61.3448 218.044C60.7667 218.044 60.268 217.916 59.8487 217.661C59.4321 217.403 59.1104 217.044 58.8839 216.583C58.6599 216.119 58.5479 215.58 58.5479 214.966C58.5479 214.351 58.6599 213.81 58.8839 213.341C59.1104 212.869 59.4255 212.502 59.8292 212.239C60.2354 211.974 60.7094 211.841 61.2511 211.841C61.5636 211.841 61.8722 211.893 62.1768 211.997C62.4815 212.101 62.7589 212.271 63.0089 212.505C63.2589 212.737 63.4581 213.044 63.6065 213.427C63.755 213.81 63.8292 214.281 63.8292 214.841V215.231H59.2042V214.435H62.8917C62.8917 214.096 62.824 213.794 62.6886 213.528C62.5557 213.263 62.3656 213.053 62.1182 212.899C61.8735 212.746 61.5844 212.669 61.2511 212.669C60.8839 212.669 60.5662 212.76 60.2979 212.942C60.0323 213.122 59.8279 213.356 59.6847 213.646C59.5414 213.935 59.4698 214.244 59.4698 214.575V215.106C59.4698 215.56 59.5479 215.944 59.7042 216.259C59.863 216.571 60.0831 216.81 60.3643 216.974C60.6456 217.135 60.9724 217.216 61.3448 217.216C61.587 217.216 61.8057 217.182 62.0011 217.114C62.199 217.044 62.3696 216.94 62.5128 216.802C62.656 216.661 62.7667 216.487 62.8448 216.278L63.7354 216.528C63.6417 216.83 63.4841 217.096 63.2628 217.325C63.0414 217.552 62.768 217.729 62.4425 217.856C62.1169 217.981 61.7511 218.044 61.3448 218.044ZM67.4972 218.044C66.9972 218.044 66.5557 217.918 66.1729 217.665C65.7901 217.41 65.4906 217.05 65.2745 216.587C65.0584 216.121 64.9503 215.57 64.9503 214.935C64.9503 214.304 65.0584 213.757 65.2745 213.294C65.4906 212.83 65.7914 212.472 66.1768 212.22C66.5623 211.967 67.0076 211.841 67.5128 211.841C67.9034 211.841 68.212 211.906 68.4386 212.036C68.6677 212.164 68.8422 212.31 68.962 212.474C69.0844 212.635 69.1794 212.768 69.2472 212.872H69.3253V209.919H70.2472V217.919H69.3565V216.997H69.2472C69.1794 217.106 69.0831 217.244 68.9581 217.411C68.8331 217.575 68.6547 217.722 68.4229 217.853C68.1912 217.98 67.8826 218.044 67.4972 218.044ZM67.6222 217.216C67.9919 217.216 68.3044 217.119 68.5597 216.927C68.8149 216.731 69.0089 216.462 69.1417 216.118C69.2745 215.772 69.3409 215.372 69.3409 214.919C69.3409 214.471 69.2758 214.079 69.1456 213.743C69.0154 213.405 68.8227 213.142 68.5675 212.954C68.3123 212.764 67.9972 212.669 67.6222 212.669C67.2315 212.669 66.906 212.769 66.6456 212.97C66.3878 213.168 66.1938 213.437 66.0636 213.778C65.936 214.117 65.8722 214.497 65.8722 214.919C65.8722 215.346 65.9373 215.734 66.0675 216.083C66.2003 216.429 66.3956 216.705 66.6534 216.911C66.9138 217.114 67.2367 217.216 67.6222 217.216Z" fill="white"/>
<path d="M96.0588 186.094H122" stroke="#A6D2F3" stroke-width="1.5" stroke-dasharray="4 3"/>
<path opacity="0.5" d="M441.067 145H363.933C360.656 145 358 150.229 358 156.68V206.32C358 212.771 360.656 218 363.933 218H441.067C444.344 218 447 212.771 447 206.32V156.68C447 150.229 444.344 145 441.067 145Z" fill="#A6D2F3"/>
<path d="M386.304 159V158.361L388.705 155.733C388.986 155.425 389.218 155.158 389.401 154.93C389.583 154.701 389.718 154.485 389.805 154.284C389.895 154.08 389.94 153.867 389.94 153.645C389.94 153.389 389.879 153.168 389.756 152.981C389.635 152.794 389.469 152.649 389.259 152.548C389.048 152.446 388.811 152.395 388.548 152.395C388.269 152.395 388.025 152.453 387.817 152.569C387.611 152.683 387.451 152.842 387.337 153.048C387.226 153.254 387.17 153.496 387.17 153.773H386.332C386.332 153.347 386.431 152.973 386.627 152.651C386.824 152.329 387.091 152.078 387.43 151.898C387.771 151.718 388.153 151.628 388.577 151.628C389.003 151.628 389.38 151.718 389.71 151.898C390.039 152.078 390.297 152.32 390.484 152.626C390.671 152.931 390.764 153.271 390.764 153.645C390.764 153.912 390.716 154.174 390.619 154.43C390.524 154.683 390.358 154.966 390.121 155.278C389.887 155.589 389.562 155.967 389.145 156.415L387.511 158.162V158.219H390.892V159H386.304ZM392.032 157.509V156.784L395.228 151.727H395.754V152.849H395.398L392.984 156.67V156.727H397.288V157.509H392.032ZM395.455 159V157.288V156.951V151.727H396.293V159H395.455ZM401.204 151.386L398.86 160.094H398.093L400.437 151.386H401.204ZM402.41 159L405.663 152.565V152.509H401.913V151.727H406.572V152.551L403.333 159H402.41ZM382.186 165.545C382.144 165.186 381.971 164.906 381.668 164.707C381.365 164.509 380.993 164.409 380.553 164.409C380.231 164.409 379.949 164.461 379.708 164.565C379.469 164.67 379.282 164.813 379.147 164.995C379.014 165.177 378.948 165.384 378.948 165.616C378.948 165.811 378.994 165.978 379.086 166.117C379.181 166.254 379.302 166.369 379.449 166.462C379.595 166.552 379.749 166.626 379.91 166.685C380.071 166.742 380.219 166.788 380.354 166.824L381.093 167.023C381.282 167.072 381.493 167.141 381.725 167.229C381.959 167.316 382.183 167.436 382.396 167.587C382.611 167.737 382.789 167.928 382.929 168.163C383.068 168.397 383.138 168.685 383.138 169.026C383.138 169.419 383.035 169.774 382.829 170.091C382.626 170.408 382.327 170.66 381.934 170.847C381.544 171.034 381.069 171.128 380.51 171.128C379.989 171.128 379.538 171.044 379.157 170.876C378.779 170.708 378.48 170.473 378.262 170.173C378.047 169.872 377.925 169.523 377.897 169.125H378.806C378.829 169.4 378.922 169.627 379.083 169.807C379.246 169.984 379.452 170.117 379.701 170.205C379.952 170.29 380.221 170.332 380.51 170.332C380.846 170.332 381.148 170.278 381.416 170.169C381.683 170.058 381.895 169.904 382.052 169.707C382.208 169.509 382.286 169.277 382.286 169.011C382.286 168.77 382.218 168.573 382.083 168.422C381.949 168.27 381.771 168.147 381.551 168.053C381.331 167.958 381.093 167.875 380.837 167.804L379.942 167.548C379.374 167.385 378.924 167.152 378.593 166.849C378.261 166.546 378.096 166.149 378.096 165.659C378.096 165.252 378.206 164.897 378.426 164.594C378.648 164.288 378.947 164.052 379.321 163.884C379.697 163.713 380.117 163.628 380.581 163.628C381.05 163.628 381.467 163.712 381.831 163.88C382.196 164.046 382.485 164.273 382.698 164.562C382.913 164.851 383.027 165.179 383.039 165.545H382.186ZM387.91 168.77V165.545H388.748V171H387.91V170.077H387.853C387.725 170.354 387.526 170.589 387.257 170.783C386.987 170.975 386.646 171.071 386.234 171.071C385.893 171.071 385.59 170.996 385.325 170.847C385.06 170.696 384.851 170.469 384.7 170.165C384.548 169.86 384.473 169.475 384.473 169.011V165.545H385.311V168.955C385.311 169.352 385.422 169.67 385.644 169.906C385.869 170.143 386.156 170.261 386.504 170.261C386.712 170.261 386.924 170.208 387.139 170.102C387.357 169.995 387.54 169.832 387.686 169.612C387.835 169.391 387.91 169.111 387.91 168.77ZM390.283 173.045V165.545H391.093V166.412H391.192C391.254 166.317 391.339 166.196 391.448 166.05C391.559 165.901 391.718 165.768 391.924 165.652C392.132 165.534 392.414 165.474 392.769 165.474C393.228 165.474 393.633 165.589 393.983 165.819C394.334 166.049 394.607 166.374 394.804 166.795C395 167.217 395.098 167.714 395.098 168.287C395.098 168.865 395 169.365 394.804 169.789C394.607 170.21 394.335 170.537 393.987 170.769C393.639 170.999 393.238 171.114 392.783 171.114C392.433 171.114 392.152 171.056 391.941 170.94C391.731 170.821 391.569 170.687 391.455 170.538C391.341 170.387 391.254 170.261 391.192 170.162H391.121V173.045H390.283ZM391.107 168.273C391.107 168.685 391.167 169.048 391.288 169.363C391.409 169.675 391.585 169.92 391.817 170.098C392.049 170.273 392.333 170.361 392.669 170.361C393.02 170.361 393.312 170.268 393.547 170.084C393.783 169.897 393.961 169.646 394.079 169.331C394.2 169.014 394.26 168.661 394.26 168.273C394.26 167.889 394.201 167.544 394.083 167.236C393.967 166.926 393.79 166.681 393.554 166.501C393.319 166.318 393.025 166.227 392.669 166.227C392.329 166.227 392.042 166.314 391.81 166.487C391.578 166.657 391.403 166.896 391.284 167.204C391.166 167.509 391.107 167.866 391.107 168.273ZM396.377 173.045V165.545H397.186V166.412H397.286C397.347 166.317 397.433 166.196 397.542 166.05C397.653 165.901 397.811 165.768 398.017 165.652C398.226 165.534 398.507 165.474 398.863 165.474C399.322 165.474 399.727 165.589 400.077 165.819C400.427 166.049 400.701 166.374 400.897 166.795C401.094 167.217 401.192 167.714 401.192 168.287C401.192 168.865 401.094 169.365 400.897 169.789C400.701 170.21 400.429 170.537 400.081 170.769C399.733 170.999 399.331 171.114 398.877 171.114C398.526 171.114 398.246 171.056 398.035 170.94C397.824 170.821 397.662 170.687 397.549 170.538C397.435 170.387 397.347 170.261 397.286 170.162H397.215V173.045H396.377ZM397.201 168.273C397.201 168.685 397.261 169.048 397.382 169.363C397.503 169.675 397.679 169.92 397.911 170.098C398.143 170.273 398.427 170.361 398.763 170.361C399.114 170.361 399.406 170.268 399.64 170.084C399.877 169.897 400.055 169.646 400.173 169.331C400.294 169.014 400.354 168.661 400.354 168.273C400.354 167.889 400.295 167.544 400.177 167.236C400.061 166.926 399.884 166.681 399.647 166.501C399.413 166.318 399.118 166.227 398.763 166.227C398.422 166.227 398.136 166.314 397.904 166.487C397.672 166.657 397.497 166.896 397.378 167.204C397.26 167.509 397.201 167.866 397.201 168.273ZM404.686 171.114C404.194 171.114 403.762 170.996 403.39 170.762C403.021 170.528 402.732 170.2 402.524 169.778C402.318 169.357 402.215 168.865 402.215 168.301C402.215 167.733 402.318 167.237 402.524 166.813C402.732 166.389 403.021 166.06 403.39 165.826C403.762 165.592 404.194 165.474 404.686 165.474C405.179 165.474 405.61 165.592 405.979 165.826C406.351 166.06 406.64 166.389 406.846 166.813C407.054 167.237 407.158 167.733 407.158 168.301C407.158 168.865 407.054 169.357 406.846 169.778C406.64 170.2 406.351 170.528 405.979 170.762C405.61 170.996 405.179 171.114 404.686 171.114ZM404.686 170.361C405.061 170.361 405.368 170.265 405.61 170.073C405.851 169.881 406.03 169.629 406.146 169.317C406.262 169.004 406.32 168.666 406.32 168.301C406.32 167.937 406.262 167.597 406.146 167.282C406.03 166.967 405.851 166.713 405.61 166.518C405.368 166.324 405.061 166.227 404.686 166.227C404.312 166.227 404.005 166.324 403.763 166.518C403.522 166.713 403.343 166.967 403.227 167.282C403.111 167.597 403.053 167.937 403.053 168.301C403.053 168.666 403.111 169.004 403.227 169.317C403.343 169.629 403.522 169.881 403.763 170.073C404.005 170.265 404.312 170.361 404.686 170.361ZM408.437 171V165.545H409.247V166.369H409.304C409.403 166.099 409.583 165.88 409.844 165.712C410.104 165.544 410.398 165.46 410.724 165.46C410.786 165.46 410.863 165.461 410.955 165.464C411.047 165.466 411.117 165.47 411.165 165.474V166.327C411.136 166.32 411.071 166.309 410.969 166.295C410.87 166.278 410.765 166.27 410.653 166.27C410.388 166.27 410.151 166.326 409.943 166.437C409.737 166.546 409.574 166.697 409.453 166.891C409.335 167.083 409.275 167.302 409.275 167.548V171H408.437ZM414.872 165.545V166.256H412.045V165.545H414.872ZM412.869 164.239H413.707V169.438C413.707 169.674 413.742 169.852 413.81 169.97C413.881 170.086 413.971 170.164 414.08 170.205C414.191 170.242 414.309 170.261 414.432 170.261C414.524 170.261 414.6 170.257 414.659 170.247C414.718 170.235 414.765 170.226 414.801 170.219L414.971 170.972C414.915 170.993 414.835 171.014 414.734 171.036C414.632 171.059 414.503 171.071 414.346 171.071C414.11 171.071 413.878 171.02 413.65 170.918C413.426 170.817 413.238 170.661 413.089 170.453C412.943 170.245 412.869 169.982 412.869 169.665V164.239Z" fill="#2F80ED"/>
<path d="M379.521 197H378.505L381.442 189H382.442L385.38 197H384.364L381.974 190.266H381.911L379.521 197ZM379.896 193.875H383.989V194.734H379.896V193.875ZM387.423 189V197H386.501V189H387.423ZM390.471 197L388.643 191H389.611L390.908 195.594H390.971L392.252 191H393.236L394.502 195.578H394.565L395.861 191H396.83L395.002 197H394.096L392.783 192.391H392.69L391.377 197H390.471ZM399.815 197.141C399.434 197.141 399.089 197.069 398.779 196.926C398.469 196.78 398.223 196.57 398.041 196.297C397.859 196.021 397.768 195.687 397.768 195.297C397.768 194.953 397.835 194.674 397.971 194.461C398.106 194.245 398.287 194.076 398.514 193.953C398.74 193.831 398.99 193.74 399.264 193.68C399.54 193.617 399.817 193.568 400.096 193.531C400.46 193.484 400.756 193.449 400.982 193.426C401.212 193.4 401.378 193.357 401.482 193.297C401.589 193.237 401.643 193.133 401.643 192.984V192.953C401.643 192.568 401.537 192.268 401.326 192.055C401.118 191.841 400.801 191.734 400.377 191.734C399.937 191.734 399.592 191.831 399.342 192.023C399.092 192.216 398.916 192.422 398.815 192.641L397.94 192.328C398.096 191.964 398.304 191.68 398.565 191.477C398.828 191.271 399.114 191.128 399.424 191.047C399.736 190.964 400.044 190.922 400.346 190.922C400.538 190.922 400.76 190.945 401.01 190.992C401.262 191.036 401.506 191.129 401.74 191.27C401.977 191.41 402.174 191.622 402.33 191.906C402.486 192.19 402.565 192.57 402.565 193.047V197H401.643V196.187H401.596C401.533 196.318 401.429 196.457 401.283 196.605C401.137 196.754 400.943 196.88 400.701 196.984C400.459 197.089 400.163 197.141 399.815 197.141ZM399.955 196.312C400.32 196.312 400.627 196.241 400.877 196.098C401.13 195.954 401.32 195.77 401.447 195.543C401.578 195.316 401.643 195.078 401.643 194.828V193.984C401.604 194.031 401.518 194.074 401.385 194.113C401.255 194.15 401.104 194.182 400.932 194.211C400.762 194.237 400.597 194.26 400.436 194.281C400.277 194.299 400.148 194.315 400.049 194.328C399.809 194.359 399.585 194.41 399.377 194.48C399.171 194.548 399.005 194.651 398.877 194.789C398.752 194.924 398.69 195.109 398.69 195.344C398.69 195.664 398.808 195.906 399.045 196.07C399.285 196.232 399.588 196.312 399.955 196.312ZM404.626 199.25C404.47 199.25 404.33 199.237 404.208 199.211C404.086 199.188 404.001 199.164 403.954 199.141L404.189 198.328C404.412 198.385 404.61 198.406 404.782 198.391C404.954 198.375 405.107 198.298 405.239 198.16C405.375 198.025 405.498 197.805 405.61 197.5L405.782 197.031L403.564 191H404.564L406.22 195.781H406.282L407.939 191H408.939L406.392 197.875C406.277 198.185 406.135 198.441 405.966 198.645C405.797 198.85 405.6 199.003 405.376 199.102C405.155 199.201 404.905 199.25 404.626 199.25ZM414.405 192.344L413.577 192.578C413.525 192.44 413.448 192.306 413.347 192.176C413.248 192.043 413.112 191.934 412.94 191.848C412.769 191.762 412.549 191.719 412.28 191.719C411.913 191.719 411.607 191.803 411.362 191.973C411.12 192.139 410.999 192.352 410.999 192.609C410.999 192.839 411.082 193.02 411.249 193.152C411.416 193.285 411.676 193.396 412.03 193.484L412.921 193.703C413.457 193.833 413.857 194.033 414.12 194.301C414.383 194.566 414.515 194.909 414.515 195.328C414.515 195.672 414.416 195.979 414.218 196.25C414.023 196.521 413.749 196.734 413.398 196.891C413.046 197.047 412.637 197.125 412.171 197.125C411.559 197.125 411.052 196.992 410.651 196.727C410.25 196.461 409.996 196.073 409.89 195.562L410.765 195.344C410.848 195.667 411.006 195.909 411.237 196.07C411.472 196.232 411.778 196.312 412.155 196.312C412.585 196.312 412.926 196.221 413.179 196.039C413.434 195.854 413.562 195.633 413.562 195.375C413.562 195.167 413.489 194.992 413.343 194.852C413.197 194.708 412.973 194.602 412.671 194.531L411.671 194.297C411.121 194.167 410.718 193.965 410.46 193.691C410.205 193.415 410.077 193.07 410.077 192.656C410.077 192.318 410.172 192.018 410.362 191.758C410.555 191.497 410.817 191.293 411.148 191.145C411.481 190.996 411.858 190.922 412.28 190.922C412.874 190.922 413.34 191.052 413.679 191.312C414.02 191.573 414.262 191.917 414.405 192.344ZM393.423 210.125C392.882 210.125 392.406 209.996 391.998 209.738C391.591 209.48 391.274 209.12 391.044 208.656C390.818 208.193 390.705 207.651 390.705 207.031C390.705 206.406 390.818 205.861 391.044 205.395C391.274 204.928 391.591 204.566 391.998 204.309C392.406 204.051 392.882 203.922 393.423 203.922C393.965 203.922 394.439 204.051 394.845 204.309C395.254 204.566 395.572 204.928 395.798 205.395C396.028 205.861 396.142 206.406 396.142 207.031C396.142 207.651 396.028 208.193 395.798 208.656C395.572 209.12 395.254 209.48 394.845 209.738C394.439 209.996 393.965 210.125 393.423 210.125ZM393.423 209.297C393.835 209.297 394.173 209.191 394.439 208.98C394.705 208.77 394.901 208.492 395.029 208.148C395.156 207.805 395.22 207.432 395.22 207.031C395.22 206.63 395.156 206.257 395.029 205.91C394.901 205.564 394.705 205.284 394.439 205.07C394.173 204.857 393.835 204.75 393.423 204.75C393.012 204.75 392.673 204.857 392.408 205.07C392.142 205.284 391.946 205.564 391.818 205.91C391.69 206.257 391.627 206.63 391.627 207.031C391.627 207.432 391.69 207.805 391.818 208.148C391.946 208.492 392.142 208.77 392.408 208.98C392.673 209.191 393.012 209.297 393.423 209.297ZM398.471 206.391V210H397.549V204H398.44V204.937H398.518C398.659 204.633 398.872 204.388 399.159 204.203C399.445 204.016 399.815 203.922 400.268 203.922C400.674 203.922 401.03 204.005 401.335 204.172C401.639 204.336 401.876 204.586 402.045 204.922C402.215 205.255 402.299 205.677 402.299 206.188V210H401.378V206.25C401.378 205.779 401.255 205.411 401.01 205.148C400.766 204.883 400.43 204.75 400.003 204.75C399.708 204.75 399.445 204.814 399.213 204.941C398.984 205.069 398.803 205.255 398.67 205.5C398.538 205.745 398.471 206.042 398.471 206.391Z" fill="#1A5FB5"/>
<path d="M242.812 176.312L318 177" stroke="#A6D2F3" stroke-width="1.5" stroke-dasharray="4 3"/>
</svg>
