<svg width="560" height="420" viewBox="0 0 560 420" fill="none" xmlns="http://www.w3.org/2000/svg">
  <!-- Background gradient -->
  <defs>
    <linearGradient id="bgGrad" x1="0" y1="0" x2="560" y2="420" gradientUnits="userSpaceOnUse">
      <stop stop-color="#F8FAFC"/>
      <stop offset="1" stop-color="#F1F5F9"/>
    </linearGradient>
  </defs>
  <rect width="560" height="420" fill="url(#bgGrad)"/>
  
  <!-- Your Platform box -->
  <rect x="190" y="20" width="180" height="48" rx="8" fill="white" stroke="#E2E8F0"/>
  <text x="220" y="38" font-family="Manrope, sans-serif" font-size="13" font-weight="600" fill="#1E293B">Your Platform</text>
  <circle cx="295" cy="34" r="4" fill="#22C55E"/>
  <text x="303" y="38" font-family="Manrope, sans-serif" font-size="10" font-weight="500" fill="#22C55E">Connected</text>
  <text x="220" y="54" font-family="Manrope, sans-serif" font-size="9" fill="#94A3B8">e-commerce · ERP · WMS</text>
  
  <!-- Connection line down -->
  <path d="M280 68V84" stroke="#2F80ED" stroke-width="1.5"/>
  <path d="M277 79L280 84L283 79" fill="#2F80ED"/>
  
  <!-- CarryOn API Gateway -->
  <rect x="140" y="84" width="280" height="52" rx="8" fill="#2F80ED"/>
  <text x="160" y="105" font-family="Manrope, sans-serif" font-size="14" font-weight="700" fill="white">CarryOn API Gateway</text>
  <text x="160" y="122" font-family="Manrope, sans-serif" font-size="9" fill="rgba(255,255,255,0.8)">REST · Rate limit · Load balance · SSL</text>
  <rect x="360" y="96" width="50" height="20" rx="4" fill="rgba(255,255,255,0.2)"/>
  <text x="375" y="110" font-family="Manrope, sans-serif" font-size="9" font-weight="600" fill="white">v4.3 live</text>
  
  <!-- Connection lines to three columns -->
  <path d="M280 136V148" stroke="#2F80ED" stroke-width="1.5" opacity="0.4"/>
  <path d="M280 148L180 164" stroke="#2F80ED" stroke-width="1.5" opacity="0.4"/>
  <path d="M280 148V164" stroke="#2F80ED" stroke-width="1.5" opacity="0.4"/>
  <path d="M280 148L380 164" stroke="#2F80ED" stroke-width="1.5" opacity="0.4"/>
  
  <!-- Seamless API column -->
  <rect x="80" y="164" width="200" height="80" rx="8" fill="white" stroke="#E2E8F0"/>
  <text x="100" y="188" font-family="Manrope, sans-serif" font-size="13" font-weight="700" fill="#1E293B">Seamless API</text>
  <text x="100" y="206" font-family="Manrope, sans-serif" font-size="10" fill="#64748B">Direct e-commerce link</text>
  <text x="100" y="220" font-family="Manrope, sans-serif" font-size="10" fill="#64748B">Webhooks · Real-time</text>
  <rect x="100" y="228" width="160" height="8" rx="2" fill="#EFF6FF"/>
  <rect x="104" y="230" width="120" height="4" rx="1" fill="#DBEAFE"/>
  
  <!-- Azure Cloud box -->
  <rect x="80" y="252" width="200" height="44" rx="6" fill="#F8FAFC" stroke="#E2E8F0"/>
  <text x="100" y="268" font-family="Manrope, sans-serif" font-size="11" font-weight="600" fill="#475569">Azure Cloud</text>
  <text x="100" y="282" font-family="Manrope, sans-serif" font-size="9" fill="#94A3B8">AES-256 · TLS 1.3</text>
  
  <!-- Global Delivery column -->
  <rect x="230" y="164" width="100" height="80" rx="8" fill="white" stroke="#E2E8F0"/>
  <text x="245" y="188" font-family="Manrope, sans-serif" font-size="13" font-weight="700" fill="#1E293B">Global Delivery</text>
  <text x="245" y="206" font-family="Manrope, sans-serif" font-size="10" fill="#64748B">MY to international</text>
  <text x="245" y="220" font-family="Manrope, sans-serif" font-size="10" fill="#64748B">15+ hub cities</text>
  
  <!-- Global CDN box -->
  <rect x="230" y="252" width="100" height="44" rx="6" fill="#F8FAFC" stroke="#E2E8F0"/>
  <text x="245" y="268" font-family="Manrope, sans-serif" font-size="11" font-weight="600" fill="#475569">Global CDN</text>
  <text x="245" y="282" font-family="Manrope, sans-serif" font-size="9" fill="#94A3B8">99.9% uptime SLA</text>
  
  <!-- Compliance Ready column -->
  <rect x="380" y="164" width="100" height="80" rx="8" fill="white" stroke="#E2E8F0"/>
  <text x="395" y="188" font-family="Manrope, sans-serif" font-size="13" font-weight="700" fill="#1E293B">Compliance Ready</text>
  <text x="395" y="206" font-family="Manrope, sans-serif" font-size="10" fill="#64748B">Regulatory standards</text>
  <text x="395" y="220" font-family="Manrope, sans-serif" font-size="10" fill="#64748B">MY logistics certified</text>
  
  <!-- 24/7 SOC box -->
  <rect x="380" y="252" width="100" height="44" rx="6" fill="#F8FAFC" stroke="#E2E8F0"/>
  <text x="395" y="268" font-family="Manrope, sans-serif" font-size="11" font-weight="600" fill="#475569">24/7 SOC</text>
  <text x="395" y="282" font-family="Manrope, sans-serif" font-size="9" fill="#94A3B8">Threat monitoring</text>
  
  <!-- Code snippet terminal -->
  <rect x="80" y="320" width="400" height="80" rx="8" fill="#1E293B"/>
  <!-- Terminal dots -->
  <circle cx="96" cy="336" r="4" fill="#EF4444"/>
  <circle cx="110" cy="336" r="4" fill="#F59E0B"/>
  <circle cx="124" cy="336" r="4" fill="#22C55E"/>
  <!-- Code content -->
  <text x="96" y="356" font-family="monospace" font-size="10" fill="#64748B">API Request: /v4/deliveries</text>
  <text x="96" y="374" font-family="monospace" font-size="10" fill="#94A3B8">{ pickup: "KL dropout", dropoff: "Penang", weight: 12 }</text>
  <text x="96" y="392" font-family="monospace" font-size="10" fill="#22C55E">200 OK</text>
  <text x="150" y="392" font-family="monospace" font-size="10" fill="#64748B">{ id: "DLV-4821", eta: "2h14m", driver: "assigned" }</text>
</svg>
