<svg viewBox="0 0 40 40" fill="none" xmlns="http://www.w3.org/2000/svg">
  <path d="M20 40V36H36V36V36V21.8C36 17.9 34.6417 14.5917 31.925 11.875C29.2083 9.15833 25.9 7.8 22 7.8C18.1 7.8 14.7917 9.15833 12.075 11.875C9.35833 14.5917 8 17.9 8 21.8V34H6C4.9 34 3.95833 33.6083 3.175 32.825C2.39167 32.0417 2 31.1 2 30V26C2 25.3 2.175 24.6417 2.525 24.025C2.875 23.4083 3.36667 22.9167 4 22.55L4.15 19.9C4.41667 17.6333 5.075 15.5333 6.125 13.6C7.175 11.6667 8.49167 9.98333 10.075 8.55C11.6583 7.11667 13.475 6 15.525 5.2C17.575 4.4 19.7333 4 22 4C24.2667 4 26.4167 4.4 28.45 5.2C30.4833 6 32.3 7.10833 33.9 8.525C35.5 9.94167 36.8167 11.6167 37.85 13.55C38.8833 15.4833 39.55 17.5833 39.85 19.85L40 22.45C40.6333 22.75 41.125 23.2 41.475 23.8C41.825 24.4 42 25.0333 42 25.7V30.3C42 30.9667 41.825 31.6 41.475 32.2C41.125 32.8 40.6333 33.25 40 33.55V36C40 37.1 39.6083 38.0417 38.825 38.825C38.0417 39.6083 37.1 40 36 40H20V40M16 26C15.4333 26 14.9583 25.8083 14.575 25.425C14.1917 25.0417 14 24.5667 14 24C14 23.4333 14.1917 22.9583 14.575 22.575C14.9583 22.1917 15.4333 22 16 22C16.5667 22 17.0417 22.1917 17.425 22.575C17.8083 22.9583 18 23.4333 18 24C18 24.5667 17.8083 25.0417 17.425 25.425C17.0417 25.8083 16.5667 26 16 26V26M28 26C27.4333 26 26.9583 25.8083 26.575 25.425C26.1917 25.0417 26 24.5667 26 24C26 23.4333 26.1917 22.9583 26.575 22.575C26.9583 22.1917 27.4333 22 28 22C28.5667 22 29.0417 22.1917 29.425 22.575C29.8083 22.9583 30 23.4333 30 24C30 24.5667 29.8083 25.0417 29.425 25.425C29.0417 25.8083 28.5667 26 28 26V26M10.05 22.9C9.81667 19.3667 10.8833 16.3333 13.25 13.8C15.6167 11.2667 18.5667 10 22.1 10C25.0667 10 27.675 10.9417 29.925 12.825C32.175 14.7083 33.5333 17.1167 34 20.05C30.9667 20.0167 28.175 19.2 25.625 17.6C23.075 16 21.1167 13.8333 19.75 11.1C19.2167 13.7667 18.0917 16.1417 16.375 18.225C14.6583 20.3083 12.55 21.8667 10.05 22.9V22.9" fill="white"/>
</svg>
